G04 #@! TF.FileFunction,Legend,Bot*
%FSLAX46Y46*%
G04 Gerber Fmt 4.6, Leading zero omitted, Abs format (unit mm)*
G04 Created by KiCad (PCBNEW 4.0.7) date 06/30/18 03:53:03*
%MOMM*%
%LPD*%
G01*
G04 APERTURE LIST*
%ADD10C,0.150000*%
%ADD11C,0.010000*%
%ADD12C,0.081280*%
%ADD13C,0.142240*%
G04 APERTURE END LIST*
D10*
D11*
G36*
X135091714Y-103922286D02*
X137268857Y-103922286D01*
X137268857Y-102833715D01*
X135091714Y-102833715D01*
X135091714Y-103922286D01*
X135091714Y-103922286D01*
G37*
X135091714Y-103922286D02*
X137268857Y-103922286D01*
X137268857Y-102833715D01*
X135091714Y-102833715D01*
X135091714Y-103922286D01*
G36*
X134003143Y-102833715D02*
X135055428Y-102833715D01*
X135055428Y-101745143D01*
X137268857Y-101745143D01*
X137268857Y-99568000D01*
X136180286Y-99568000D01*
X136180286Y-100656572D01*
X135055428Y-100656572D01*
X135055428Y-99568000D01*
X136180286Y-99568000D01*
X137268857Y-99568000D01*
X137268857Y-98479429D01*
X134003143Y-98479429D01*
X134003143Y-102833715D01*
X134003143Y-102833715D01*
G37*
X134003143Y-102833715D02*
X135055428Y-102833715D01*
X135055428Y-101745143D01*
X137268857Y-101745143D01*
X137268857Y-99568000D01*
X136180286Y-99568000D01*
X136180286Y-100656572D01*
X135055428Y-100656572D01*
X135055428Y-99568000D01*
X136180286Y-99568000D01*
X137268857Y-99568000D01*
X137268857Y-98479429D01*
X134003143Y-98479429D01*
X134003143Y-102833715D01*
G36*
X149279428Y-98479429D02*
X147102286Y-98479429D01*
X147102286Y-101745143D01*
X150368000Y-101745143D01*
X150368000Y-99568000D01*
X149279428Y-99568000D01*
X149279428Y-100656572D01*
X148190857Y-100656572D01*
X148190857Y-99568000D01*
X149279428Y-99568000D01*
X150368000Y-99568000D01*
X150368000Y-97390858D01*
X149279428Y-97390858D01*
X149279428Y-98479429D01*
X149279428Y-98479429D01*
G37*
X149279428Y-98479429D02*
X147102286Y-98479429D01*
X147102286Y-101745143D01*
X150368000Y-101745143D01*
X150368000Y-99568000D01*
X149279428Y-99568000D01*
X149279428Y-100656572D01*
X148190857Y-100656572D01*
X148190857Y-99568000D01*
X149279428Y-99568000D01*
X150368000Y-99568000D01*
X150368000Y-97390858D01*
X149279428Y-97390858D01*
X149279428Y-98479429D01*
G36*
X142748000Y-101745143D02*
X146013714Y-101745143D01*
X146013714Y-99568000D01*
X144925143Y-99568000D01*
X144925143Y-100656572D01*
X143800286Y-100656572D01*
X143800286Y-99568000D01*
X144925143Y-99568000D01*
X146013714Y-99568000D01*
X146013714Y-98479429D01*
X142748000Y-98479429D01*
X142748000Y-101745143D01*
X142748000Y-101745143D01*
G37*
X142748000Y-101745143D02*
X146013714Y-101745143D01*
X146013714Y-99568000D01*
X144925143Y-99568000D01*
X144925143Y-100656572D01*
X143800286Y-100656572D01*
X143800286Y-99568000D01*
X144925143Y-99568000D01*
X146013714Y-99568000D01*
X146013714Y-98479429D01*
X142748000Y-98479429D01*
X142748000Y-101745143D01*
G36*
X138357428Y-101745143D02*
X139446000Y-101745143D01*
X139446000Y-99568000D01*
X138357428Y-99568000D01*
X138357428Y-101745143D01*
X138357428Y-101745143D01*
G37*
X138357428Y-101745143D02*
X139446000Y-101745143D01*
X139446000Y-99568000D01*
X138357428Y-99568000D01*
X138357428Y-101745143D01*
G36*
X139446000Y-99568000D02*
X140570857Y-99568000D01*
X140570857Y-101745143D01*
X141623143Y-101745143D01*
X141623143Y-98479429D01*
X139446000Y-98479429D01*
X139446000Y-99568000D01*
X139446000Y-99568000D01*
G37*
X139446000Y-99568000D02*
X140570857Y-99568000D01*
X140570857Y-101745143D01*
X141623143Y-101745143D01*
X141623143Y-98479429D01*
X139446000Y-98479429D01*
X139446000Y-99568000D01*
G36*
X129612571Y-101745143D02*
X132878285Y-101745143D01*
X132878285Y-99568000D01*
X131826000Y-99568000D01*
X131826000Y-100656572D01*
X130701143Y-100656572D01*
X130701143Y-99568000D01*
X131826000Y-99568000D01*
X132878285Y-99568000D01*
X132878285Y-98479429D01*
X129612571Y-98479429D01*
X129612571Y-101745143D01*
X129612571Y-101745143D01*
G37*
X129612571Y-101745143D02*
X132878285Y-101745143D01*
X132878285Y-99568000D01*
X131826000Y-99568000D01*
X131826000Y-100656572D01*
X130701143Y-100656572D01*
X130701143Y-99568000D01*
X131826000Y-99568000D01*
X132878285Y-99568000D01*
X132878285Y-98479429D01*
X129612571Y-98479429D01*
X129612571Y-101745143D01*
G36*
X125258286Y-99568000D02*
X127435428Y-99568000D01*
X127435428Y-101745143D01*
X128524000Y-101745143D01*
X128524000Y-98479429D01*
X125258286Y-98479429D01*
X125258286Y-99568000D01*
X125258286Y-99568000D01*
G37*
X125258286Y-99568000D02*
X127435428Y-99568000D01*
X127435428Y-101745143D01*
X128524000Y-101745143D01*
X128524000Y-98479429D01*
X125258286Y-98479429D01*
X125258286Y-99568000D01*
G36*
X123081143Y-101745143D02*
X124133428Y-101745143D01*
X124133428Y-98479429D01*
X123081143Y-98479429D01*
X123081143Y-101745143D01*
X123081143Y-101745143D01*
G37*
X123081143Y-101745143D02*
X124133428Y-101745143D01*
X124133428Y-98479429D01*
X123081143Y-98479429D01*
X123081143Y-101745143D01*
G36*
X117602000Y-101745143D02*
X118690571Y-101745143D01*
X118690571Y-100656572D01*
X117602000Y-100656572D01*
X117602000Y-101745143D01*
X117602000Y-101745143D01*
G37*
X117602000Y-101745143D02*
X118690571Y-101745143D01*
X118690571Y-100656572D01*
X117602000Y-100656572D01*
X117602000Y-101745143D01*
G36*
X118690571Y-100656572D02*
X119779143Y-100656572D01*
X119779143Y-101745143D01*
X121956286Y-101745143D01*
X121956286Y-99568000D01*
X120867714Y-99568000D01*
X120867714Y-100656572D01*
X119779143Y-100656572D01*
X119779143Y-99568000D01*
X120867714Y-99568000D01*
X120867714Y-98479429D01*
X118690571Y-98479429D01*
X118690571Y-100656572D01*
X118690571Y-100656572D01*
G37*
X118690571Y-100656572D02*
X119779143Y-100656572D01*
X119779143Y-101745143D01*
X121956286Y-101745143D01*
X121956286Y-99568000D01*
X120867714Y-99568000D01*
X120867714Y-100656572D01*
X119779143Y-100656572D01*
X119779143Y-99568000D01*
X120867714Y-99568000D01*
X120867714Y-98479429D01*
X118690571Y-98479429D01*
X118690571Y-100656572D01*
G36*
X114336285Y-99568000D02*
X115424857Y-99568000D01*
X115424857Y-101745143D01*
X116477143Y-101745143D01*
X116477143Y-98479429D01*
X114336285Y-98479429D01*
X114336285Y-99568000D01*
X114336285Y-99568000D01*
G37*
X114336285Y-99568000D02*
X115424857Y-99568000D01*
X115424857Y-101745143D01*
X116477143Y-101745143D01*
X116477143Y-98479429D01*
X114336285Y-98479429D01*
X114336285Y-99568000D01*
G36*
X113247714Y-101745143D02*
X114300000Y-101745143D01*
X114300000Y-99568000D01*
X113247714Y-99568000D01*
X113247714Y-101745143D01*
X113247714Y-101745143D01*
G37*
X113247714Y-101745143D02*
X114300000Y-101745143D01*
X114300000Y-99568000D01*
X113247714Y-99568000D01*
X113247714Y-101745143D01*
G36*
X123081143Y-97354572D02*
X124133428Y-97354572D01*
X124133428Y-96302286D01*
X123081143Y-96302286D01*
X123081143Y-97354572D01*
X123081143Y-97354572D01*
G37*
X123081143Y-97354572D02*
X124133428Y-97354572D01*
X124133428Y-96302286D01*
X123081143Y-96302286D01*
X123081143Y-97354572D01*
D12*
X168365110Y-111561638D02*
X168916652Y-111561638D01*
X168640881Y-111561638D02*
X168640881Y-110596438D01*
X168732805Y-110734324D01*
X168824729Y-110826248D01*
X168916652Y-110872210D01*
D13*
D12*
X158251071Y-110596438D02*
X158710690Y-110596438D01*
X158756652Y-111056057D01*
X158710690Y-111010095D01*
X158618767Y-110964133D01*
X158388957Y-110964133D01*
X158297033Y-111010095D01*
X158251071Y-111056057D01*
X158205110Y-111147981D01*
X158205110Y-111377790D01*
X158251071Y-111469714D01*
X158297033Y-111515676D01*
X158388957Y-111561638D01*
X158618767Y-111561638D01*
X158710690Y-111515676D01*
X158756652Y-111469714D01*
X146106848Y-111561638D02*
X146658390Y-111561638D01*
X146382619Y-111561638D02*
X146382619Y-110596438D01*
X146474543Y-110734324D01*
X146566467Y-110826248D01*
X146658390Y-110872210D01*
X145509343Y-110596438D02*
X145417419Y-110596438D01*
X145325495Y-110642400D01*
X145279533Y-110688362D01*
X145233571Y-110780286D01*
X145187610Y-110964133D01*
X145187610Y-111193943D01*
X145233571Y-111377790D01*
X145279533Y-111469714D01*
X145325495Y-111515676D01*
X145417419Y-111561638D01*
X145509343Y-111561638D01*
X145601267Y-111515676D01*
X145647229Y-111469714D01*
X145693190Y-111377790D01*
X145739152Y-111193943D01*
X145739152Y-110964133D01*
X145693190Y-110780286D01*
X145647229Y-110688362D01*
X145601267Y-110642400D01*
X145509343Y-110596438D01*
X133406848Y-111561638D02*
X133958390Y-111561638D01*
X133682619Y-111561638D02*
X133682619Y-110596438D01*
X133774543Y-110734324D01*
X133866467Y-110826248D01*
X133958390Y-110872210D01*
X132533571Y-110596438D02*
X132993190Y-110596438D01*
X133039152Y-111056057D01*
X132993190Y-111010095D01*
X132901267Y-110964133D01*
X132671457Y-110964133D01*
X132579533Y-111010095D01*
X132533571Y-111056057D01*
X132487610Y-111147981D01*
X132487610Y-111377790D01*
X132533571Y-111469714D01*
X132579533Y-111515676D01*
X132671457Y-111561638D01*
X132901267Y-111561638D01*
X132993190Y-111515676D01*
X133039152Y-111469714D01*
X121258390Y-110688362D02*
X121212428Y-110642400D01*
X121120505Y-110596438D01*
X120890695Y-110596438D01*
X120798771Y-110642400D01*
X120752809Y-110688362D01*
X120706848Y-110780286D01*
X120706848Y-110872210D01*
X120752809Y-111010095D01*
X121304352Y-111561638D01*
X120706848Y-111561638D01*
X120109343Y-110596438D02*
X120017419Y-110596438D01*
X119925495Y-110642400D01*
X119879533Y-110688362D01*
X119833571Y-110780286D01*
X119787610Y-110964133D01*
X119787610Y-111193943D01*
X119833571Y-111377790D01*
X119879533Y-111469714D01*
X119925495Y-111515676D01*
X120017419Y-111561638D01*
X120109343Y-111561638D01*
X120201267Y-111515676D01*
X120247229Y-111469714D01*
X120293190Y-111377790D01*
X120339152Y-111193943D01*
X120339152Y-110964133D01*
X120293190Y-110780286D01*
X120247229Y-110688362D01*
X120201267Y-110642400D01*
X120109343Y-110596438D01*
X108558390Y-110688362D02*
X108512428Y-110642400D01*
X108420505Y-110596438D01*
X108190695Y-110596438D01*
X108098771Y-110642400D01*
X108052809Y-110688362D01*
X108006848Y-110780286D01*
X108006848Y-110872210D01*
X108052809Y-111010095D01*
X108604352Y-111561638D01*
X108006848Y-111561638D01*
X107133571Y-110596438D02*
X107593190Y-110596438D01*
X107639152Y-111056057D01*
X107593190Y-111010095D01*
X107501267Y-110964133D01*
X107271457Y-110964133D01*
X107179533Y-111010095D01*
X107133571Y-111056057D01*
X107087610Y-111147981D01*
X107087610Y-111377790D01*
X107133571Y-111469714D01*
X107179533Y-111515676D01*
X107271457Y-111561638D01*
X107501267Y-111561638D01*
X107593190Y-111515676D01*
X107639152Y-111469714D01*
X95904352Y-110596438D02*
X95306848Y-110596438D01*
X95628581Y-110964133D01*
X95490695Y-110964133D01*
X95398771Y-111010095D01*
X95352809Y-111056057D01*
X95306848Y-111147981D01*
X95306848Y-111377790D01*
X95352809Y-111469714D01*
X95398771Y-111515676D01*
X95490695Y-111561638D01*
X95766467Y-111561638D01*
X95858390Y-111515676D01*
X95904352Y-111469714D01*
X94709343Y-110596438D02*
X94617419Y-110596438D01*
X94525495Y-110642400D01*
X94479533Y-110688362D01*
X94433571Y-110780286D01*
X94387610Y-110964133D01*
X94387610Y-111193943D01*
X94433571Y-111377790D01*
X94479533Y-111469714D01*
X94525495Y-111515676D01*
X94617419Y-111561638D01*
X94709343Y-111561638D01*
X94801267Y-111515676D01*
X94847229Y-111469714D01*
X94893190Y-111377790D01*
X94939152Y-111193943D01*
X94939152Y-110964133D01*
X94893190Y-110780286D01*
X94847229Y-110688362D01*
X94801267Y-110642400D01*
X94709343Y-110596438D01*
M02*
