M48
;DRILL file {KiCad 4.0.7} date 06/30/18 03:53:07
;FORMAT={3:3/ absolute / metric / suppress leading zeros}
FMAT,2
METRIC,TZ
T1C0.400
T2C0.650
T3C0.800
T4C1.000
T5C1.118
T6C2.200
%
G90
G05
M71
T1
X94924Y-80415
X100712Y-110290
X101136Y-92246
X103717Y-92396
X104362Y-110582
X105277Y-111731
X105305Y-84116
X108520Y-83432
X109883Y-83394
X110323Y-80779
X114338Y-81743
X114412Y-80850
X117682Y-88583
X118341Y-87868
X120478Y-89794
X121118Y-89155
X121290Y-86618
X122679Y-86222
X124665Y-85891
X130731Y-103994
X131976Y-111957
X138939Y-71859
X139573Y-112012
X141680Y-110851
X144471Y-111166
X148865Y-85296
X149741Y-85581
X152427Y-87113
X153255Y-87489
X154960Y-111747
T2
X156083Y-84328
X156083Y-85598
X156083Y-86868
T3
X95250Y-82169
X95250Y-89789
X97790Y-82169
X97790Y-89789
X100330Y-82169
X100330Y-89789
X102870Y-82169
X102870Y-89789
X105410Y-82169
X105410Y-89789
X107950Y-82169
X107950Y-89789
X110490Y-82169
X110490Y-89789
X113030Y-82169
X113030Y-89789
X123063Y-82169
X123063Y-89789
X125603Y-82169
X125603Y-89789
X128143Y-82169
X128143Y-89789
X130683Y-82169
X130683Y-89789
X133223Y-82169
X133223Y-89789
X135763Y-82169
X135763Y-89789
X138303Y-82169
X138303Y-89789
T4
X95250Y-74422
X95250Y-76962
X97790Y-74422
X97790Y-76962
X100330Y-74422
X100330Y-76962
X102870Y-74422
X102870Y-76962
X105410Y-74422
X105410Y-76962
X107950Y-74422
X107950Y-76962
X110490Y-74422
X110490Y-76962
X113030Y-74422
X113030Y-76962
X115570Y-74422
X115570Y-76962
X118110Y-74422
X118110Y-76962
X120650Y-74422
X120650Y-76962
X123190Y-74422
X123190Y-76962
X125730Y-74422
X125730Y-76962
X128270Y-74422
X128270Y-76962
X130810Y-74422
X130810Y-76962
X133350Y-74422
X133350Y-76962
X135890Y-74422
X135890Y-76962
X138430Y-74422
X138430Y-76962
X140970Y-74422
X140970Y-76962
X143510Y-74422
X143510Y-76962
X146050Y-74422
X146050Y-76962
X148590Y-74422
X148590Y-76962
X151130Y-74422
X151130Y-76962
X153670Y-74422
X153670Y-76962
X156210Y-74422
X156210Y-76962
X158750Y-74422
X158750Y-76962
X161290Y-74422
X161290Y-76962
X163830Y-74422
X163830Y-76962
X166370Y-74422
X166370Y-76962
X168910Y-74422
X168910Y-76962
T5
X95123Y-93345
X95123Y-108356
X97663Y-93345
X97663Y-108356
X100203Y-93345
X100203Y-108356
X102743Y-93345
X102743Y-108356
X105283Y-93345
X105283Y-108356
X107823Y-93345
X107823Y-108356
X110363Y-93345
X110363Y-108356
X112903Y-93345
X112903Y-108356
X115443Y-93345
X115443Y-108356
X117983Y-93345
X117983Y-108356
X120523Y-93345
X120523Y-108356
X123063Y-93345
X123063Y-108356
X125603Y-93345
X125603Y-108356
X128143Y-93345
X128143Y-108356
X135763Y-93345
X135763Y-108356
X138303Y-93345
X138303Y-108356
X140843Y-93345
X140843Y-108356
X143383Y-93345
X143383Y-108356
X145923Y-93345
X145923Y-108356
X148463Y-93345
X148463Y-108356
X151003Y-93345
X151003Y-108356
X153543Y-93345
X153543Y-108356
X156083Y-93345
X156083Y-108356
X158623Y-93345
X158623Y-108356
X161163Y-93345
X161163Y-108356
X163703Y-93345
X163703Y-108356
X166243Y-93345
X166243Y-108356
X168783Y-93345
X168783Y-108356
T6
X89408Y-73152
X89408Y-107442
X174625Y-73152
X174625Y-107442
T0
M30
