G04 #@! TF.FileFunction,Copper,L2,Bot,Signal*
%FSLAX46Y46*%
G04 Gerber Fmt 4.6, Leading zero omitted, Abs format (unit mm)*
G04 Created by KiCad (PCBNEW 4.0.7) date 06/30/18 03:53:03*
%MOMM*%
%LPD*%
G01*
G04 APERTURE LIST*
%ADD10C,0.150000*%
%ADD11R,1.676400X1.676400*%
%ADD12C,1.676400*%
%ADD13R,1.000000X1.000000*%
%ADD14O,1.000000X1.000000*%
%ADD15R,1.524000X7.112000*%
%ADD16R,1.600000X1.600000*%
%ADD17O,1.600000X1.600000*%
%ADD18R,1.700000X1.700000*%
%ADD19O,1.700000X1.700000*%
%ADD20C,0.600000*%
%ADD21C,0.500000*%
%ADD22C,0.250000*%
%ADD23C,0.254000*%
G04 APERTURE END LIST*
D10*
D11*
X95123000Y-108356400D03*
D12*
X97663000Y-108356400D03*
X100203000Y-108356400D03*
X102743000Y-108356400D03*
X105283000Y-108356400D03*
X107823000Y-108356400D03*
X110363000Y-108356400D03*
X112903000Y-108356400D03*
X115443000Y-108356400D03*
X117983000Y-108356400D03*
X120523000Y-108356400D03*
X123063000Y-108356400D03*
X125603000Y-108356400D03*
X128143000Y-108356400D03*
X128143000Y-93345000D03*
X125603000Y-93345000D03*
X123063000Y-93345000D03*
X120523000Y-93345000D03*
X117983000Y-93345000D03*
X115443000Y-93345000D03*
X112903000Y-93345000D03*
X110363000Y-93345000D03*
X107823000Y-93345000D03*
X105283000Y-93345000D03*
X102743000Y-93345000D03*
X100203000Y-93345000D03*
X97663000Y-93345000D03*
X95123000Y-93345000D03*
D11*
X135763000Y-108356400D03*
D12*
X138303000Y-108356400D03*
X140843000Y-108356400D03*
X143383000Y-108356400D03*
X145923000Y-108356400D03*
X148463000Y-108356400D03*
X151003000Y-108356400D03*
X153543000Y-108356400D03*
X156083000Y-108356400D03*
X158623000Y-108356400D03*
X161163000Y-108356400D03*
X163703000Y-108356400D03*
X166243000Y-108356400D03*
X168783000Y-108356400D03*
X168783000Y-93345000D03*
X166243000Y-93345000D03*
X163703000Y-93345000D03*
X161163000Y-93345000D03*
X158623000Y-93345000D03*
X156083000Y-93345000D03*
X153543000Y-93345000D03*
X151003000Y-93345000D03*
X148463000Y-93345000D03*
X145923000Y-93345000D03*
X143383000Y-93345000D03*
X140843000Y-93345000D03*
X138303000Y-93345000D03*
X135763000Y-93345000D03*
D13*
X156083000Y-84328000D03*
D14*
X156083000Y-85598000D03*
X156083000Y-86868000D03*
D15*
X168783000Y-115887500D03*
X166243000Y-115887500D03*
X163703000Y-115887500D03*
X161163000Y-115887500D03*
X158623000Y-115887500D03*
X156083000Y-115887500D03*
X153543000Y-115887500D03*
X151003000Y-115887500D03*
X148463000Y-115887500D03*
X145923000Y-115887500D03*
X143383000Y-115887500D03*
X140843000Y-115887500D03*
X138303000Y-115887500D03*
X135763000Y-115887500D03*
X133223000Y-115887500D03*
X130683000Y-115887500D03*
X128143000Y-115887500D03*
X125603000Y-115887500D03*
X123063000Y-115887500D03*
X120523000Y-115887500D03*
X117983000Y-115887500D03*
X115443000Y-115887500D03*
X112903000Y-115887500D03*
X110363000Y-115887500D03*
X107823000Y-115887500D03*
X105283000Y-115887500D03*
X102743000Y-115887500D03*
X100203000Y-115887500D03*
X97663000Y-115887500D03*
X95123000Y-115887500D03*
D16*
X95250000Y-89789000D03*
D17*
X113030000Y-82169000D03*
X97790000Y-89789000D03*
X110490000Y-82169000D03*
X100330000Y-89789000D03*
X107950000Y-82169000D03*
X102870000Y-89789000D03*
X105410000Y-82169000D03*
X105410000Y-89789000D03*
X102870000Y-82169000D03*
X107950000Y-89789000D03*
X100330000Y-82169000D03*
X110490000Y-89789000D03*
X97790000Y-82169000D03*
X113030000Y-89789000D03*
X95250000Y-82169000D03*
D16*
X123063000Y-89789000D03*
D17*
X138303000Y-82169000D03*
X125603000Y-89789000D03*
X135763000Y-82169000D03*
X128143000Y-89789000D03*
X133223000Y-82169000D03*
X130683000Y-89789000D03*
X130683000Y-82169000D03*
X133223000Y-89789000D03*
X128143000Y-82169000D03*
X135763000Y-89789000D03*
X125603000Y-82169000D03*
X138303000Y-89789000D03*
X123063000Y-82169000D03*
D18*
X168910000Y-76962000D03*
D19*
X168910000Y-74422000D03*
X166370000Y-76962000D03*
X166370000Y-74422000D03*
X163830000Y-76962000D03*
X163830000Y-74422000D03*
X161290000Y-76962000D03*
X161290000Y-74422000D03*
X158750000Y-76962000D03*
X158750000Y-74422000D03*
X156210000Y-76962000D03*
X156210000Y-74422000D03*
X153670000Y-76962000D03*
X153670000Y-74422000D03*
X151130000Y-76962000D03*
X151130000Y-74422000D03*
X148590000Y-76962000D03*
X148590000Y-74422000D03*
X146050000Y-76962000D03*
X146050000Y-74422000D03*
X143510000Y-76962000D03*
X143510000Y-74422000D03*
X140970000Y-76962000D03*
X140970000Y-74422000D03*
X138430000Y-76962000D03*
X138430000Y-74422000D03*
X135890000Y-76962000D03*
X135890000Y-74422000D03*
X133350000Y-76962000D03*
X133350000Y-74422000D03*
X130810000Y-76962000D03*
X130810000Y-74422000D03*
X128270000Y-76962000D03*
X128270000Y-74422000D03*
X125730000Y-76962000D03*
X125730000Y-74422000D03*
X123190000Y-76962000D03*
X123190000Y-74422000D03*
X120650000Y-76962000D03*
X120650000Y-74422000D03*
X118110000Y-76962000D03*
X118110000Y-74422000D03*
X115570000Y-76962000D03*
X115570000Y-74422000D03*
X113030000Y-76962000D03*
X113030000Y-74422000D03*
X110490000Y-76962000D03*
X110490000Y-74422000D03*
X107950000Y-76962000D03*
X107950000Y-74422000D03*
X105410000Y-76962000D03*
X105410000Y-74422000D03*
X102870000Y-76962000D03*
X102870000Y-74422000D03*
X100330000Y-76962000D03*
X100330000Y-74422000D03*
X97790000Y-76962000D03*
X97790000Y-74422000D03*
X95250000Y-76962000D03*
X95250000Y-74422000D03*
D20*
X110323100Y-80778900D03*
X138938500Y-71858600D03*
X124664800Y-85890700D03*
X141680400Y-110851200D03*
X152426600Y-87112700D03*
X153255000Y-87488500D03*
X154959700Y-111747100D03*
X144471100Y-111166100D03*
X94924200Y-80414900D03*
X105304900Y-84116400D03*
X105277400Y-111731400D03*
X109883400Y-83394200D03*
X114338400Y-81742600D03*
X114412400Y-80849700D03*
X120477600Y-89793800D03*
X121118300Y-89154700D03*
X122679100Y-86221500D03*
X121289600Y-86617700D03*
X118340900Y-87868100D03*
X117681900Y-88583300D03*
X101136200Y-92245700D03*
X100711600Y-110289600D03*
X104361500Y-110581900D03*
X103716700Y-92395800D03*
X139573000Y-112012000D03*
X131976200Y-111956800D03*
X130730600Y-103994500D03*
X148864700Y-85296400D03*
X149740700Y-85580900D03*
X108520100Y-83432000D03*
D21*
X128318300Y-71672100D02*
X138938500Y-71858600D01*
X128318300Y-71672100D02*
X128270000Y-71671700D01*
X107950000Y-71671700D02*
X128270000Y-71671700D01*
X107950000Y-71671700D02*
X107801100Y-71675700D01*
X97670900Y-72225000D02*
X107801100Y-71675700D01*
X97236100Y-72287600D02*
X97096900Y-72333800D01*
X97524400Y-72232900D02*
X97236100Y-72287600D01*
X97670900Y-72225000D02*
X97524400Y-72232900D01*
X94809000Y-73093200D02*
X97096900Y-72333800D01*
X93901700Y-74921100D02*
X94081800Y-75193800D01*
X93820100Y-74272800D02*
X93901700Y-74921100D01*
X94033800Y-73655200D02*
X93820100Y-74272800D01*
X94498900Y-73196100D02*
X94033800Y-73655200D01*
X94809000Y-73093200D02*
X94498900Y-73196100D01*
X95250000Y-76962000D02*
X94081800Y-75193800D01*
X125125000Y-85948900D02*
X124664800Y-85890700D01*
X125483100Y-85979000D02*
X125603000Y-85979000D01*
X125243900Y-85963900D02*
X125483100Y-85979000D01*
X125125000Y-85948900D02*
X125243900Y-85963900D01*
X125705800Y-85979000D02*
X125603000Y-85979000D01*
X125911200Y-85990100D02*
X125705800Y-85979000D01*
X126013400Y-86001200D02*
X125911200Y-85990100D01*
X128523900Y-86273200D02*
X126013400Y-86001200D01*
X128616000Y-86283100D02*
X128523900Y-86273200D01*
X128798800Y-86312700D02*
X128616000Y-86283100D01*
X128889300Y-86332200D02*
X128798800Y-86312700D01*
X131316200Y-86856200D02*
X128889300Y-86332200D01*
X131332800Y-86859800D02*
X131316200Y-86856200D01*
X138595400Y-88470900D02*
X131332800Y-86859800D01*
X138982800Y-88556900D02*
X138595400Y-88470900D01*
X139541400Y-89120600D02*
X138982800Y-88556900D01*
X139706100Y-89897000D02*
X139541400Y-89120600D01*
X139424500Y-90639000D02*
X139706100Y-89897000D01*
X139105400Y-90874800D02*
X139424500Y-90639000D01*
X135763000Y-93345000D02*
X139105400Y-90874800D01*
X110883500Y-80961500D02*
X110323100Y-80778900D01*
X111275600Y-81089300D02*
X110883500Y-80961500D01*
X111760000Y-81756700D02*
X111275600Y-81089300D01*
X111760000Y-82169000D02*
X111760000Y-81756700D01*
X112969600Y-83468300D02*
X113246500Y-83420400D01*
X112427100Y-83321500D02*
X112969600Y-83468300D01*
X111997100Y-82959600D02*
X112427100Y-83321500D01*
X111760000Y-82450000D02*
X111997100Y-82959600D01*
X111760000Y-82169000D02*
X111760000Y-82450000D01*
X117445900Y-82694000D02*
X113246500Y-83420400D01*
X117550900Y-82675900D02*
X117445900Y-82694000D01*
X117762100Y-82648100D02*
X117550900Y-82675900D01*
X117868200Y-82638500D02*
X117762100Y-82648100D01*
X123063000Y-82169000D02*
X117868200Y-82638500D01*
X94271700Y-81653800D02*
X95250000Y-82169000D01*
X94021300Y-81521900D02*
X94271700Y-81653800D01*
X93662200Y-81084300D02*
X94021300Y-81521900D01*
X93501300Y-80541500D02*
X93662200Y-81084300D01*
X93563800Y-79978900D02*
X93501300Y-80541500D01*
X93701900Y-79731800D02*
X93563800Y-79978900D01*
X95250000Y-76962000D02*
X93701900Y-79731800D01*
X95123000Y-90339000D02*
X95250000Y-89789000D01*
X95123000Y-90589000D02*
X95123000Y-90339000D01*
X95123000Y-93345000D02*
X95123000Y-90589000D01*
X95123000Y-107768200D02*
X95123000Y-108356400D01*
X95123000Y-107518200D02*
X95123000Y-107768200D01*
X95123000Y-93345000D02*
X95123000Y-107518200D01*
X95250000Y-88989000D02*
X95250000Y-82169000D01*
X95250000Y-89239000D02*
X95250000Y-88989000D01*
X95250000Y-89789000D02*
X95250000Y-89239000D01*
X95123000Y-108944600D02*
X95123000Y-108356400D01*
X95123000Y-109194600D02*
X95123000Y-108944600D01*
X95123000Y-112331500D02*
X95123000Y-109194600D01*
X95123000Y-112581500D02*
X95123000Y-112331500D01*
X95123000Y-115887500D02*
X95123000Y-112581500D01*
D22*
X140214700Y-109452400D02*
X138303000Y-108356400D01*
X140731700Y-109628100D02*
X140915100Y-109617600D01*
X140374100Y-109543800D02*
X140731700Y-109628100D01*
X140214700Y-109452400D02*
X140374100Y-109543800D01*
X141607700Y-109578100D02*
X140915100Y-109617600D01*
X141634200Y-109576500D02*
X141607700Y-109578100D01*
X141687300Y-109575700D02*
X141634200Y-109576500D01*
X141713800Y-109576400D02*
X141687300Y-109575700D01*
X143349900Y-109619300D02*
X141713800Y-109576400D01*
X143349900Y-109619300D02*
X143383000Y-109619700D01*
X145923000Y-109619700D02*
X143383000Y-109619700D01*
X147129800Y-108969100D02*
X147179600Y-108486000D01*
X146408600Y-109619700D02*
X147129800Y-108969100D01*
X145923000Y-109619700D02*
X146408600Y-109619700D01*
X147206400Y-108226800D02*
X147179600Y-108486000D01*
X147213900Y-108154000D02*
X147206400Y-108226800D01*
X147245700Y-108011100D02*
X147213900Y-108154000D01*
X147269700Y-107941900D02*
X147245700Y-108011100D01*
X152196300Y-93759500D02*
X147269700Y-107941900D01*
X152252100Y-93547400D02*
X152259600Y-93474600D01*
X152220300Y-93690300D02*
X152252100Y-93547400D01*
X152196300Y-93759500D02*
X152220300Y-93690300D01*
X152286400Y-93215400D02*
X152259600Y-93474600D01*
X152338600Y-92709200D02*
X152286400Y-93215400D01*
X153115700Y-92051800D02*
X152338600Y-92709200D01*
X153623600Y-92084300D02*
X153115700Y-92051800D01*
X154351400Y-92130800D02*
X153623600Y-92084300D01*
X157310900Y-87685500D02*
X154351400Y-92130800D01*
X157390300Y-87553300D02*
X157412600Y-87507000D01*
X157339400Y-87642700D02*
X157390300Y-87553300D01*
X157310900Y-87685500D02*
X157339400Y-87642700D01*
X157908400Y-86475300D02*
X157412600Y-87507000D01*
X158108300Y-85825800D02*
X158108300Y-85598000D01*
X158007100Y-86270000D02*
X158108300Y-85825800D01*
X157908400Y-86475300D02*
X158007100Y-86270000D01*
X158108300Y-83828000D02*
X158108300Y-85598000D01*
X158078900Y-83511600D02*
X158049800Y-83409500D01*
X158108300Y-83721800D02*
X158078900Y-83511600D01*
X158108300Y-83828000D02*
X158108300Y-83721800D01*
X156210000Y-76962000D02*
X158049800Y-83409500D01*
X154675100Y-92784300D02*
X154351400Y-92130800D01*
X154739700Y-92914800D02*
X154675100Y-92784300D01*
X154806200Y-93198300D02*
X154739700Y-92914800D01*
X154806300Y-93343900D02*
X154806200Y-93198300D01*
X154819700Y-108357500D02*
X154806300Y-93343900D01*
X154842800Y-108611700D02*
X154865600Y-108693900D01*
X154819800Y-108442800D02*
X154842800Y-108611700D01*
X154819700Y-108357500D02*
X154819800Y-108442800D01*
X155658400Y-111553400D02*
X154865600Y-108693900D01*
X155671600Y-111600700D02*
X155658400Y-111553400D01*
X155684800Y-111698000D02*
X155671600Y-111600700D01*
X155684800Y-111747100D02*
X155684800Y-111698000D01*
X155684800Y-112331500D02*
X155684800Y-111747100D01*
X155684800Y-112456500D02*
X155684800Y-112331500D01*
X156083000Y-115887500D02*
X155684800Y-112456500D01*
X142721500Y-112257100D02*
X141680400Y-110851200D01*
X142733400Y-112273300D02*
X142721500Y-112257100D01*
X142746000Y-112311400D02*
X142733400Y-112273300D01*
X142746000Y-112331500D02*
X142746000Y-112311400D01*
X142746000Y-112456500D02*
X142746000Y-112331500D01*
X143383000Y-115887500D02*
X142746000Y-112456500D01*
X147146800Y-93658400D02*
X143383000Y-108356400D01*
X147174800Y-93521100D02*
X147179600Y-93474600D01*
X147158400Y-93613100D02*
X147174800Y-93521100D01*
X147146800Y-93658400D02*
X147158400Y-93613100D01*
X147206400Y-93215400D02*
X147179600Y-93474600D01*
X147219000Y-93092900D02*
X147206400Y-93215400D01*
X147291200Y-92857300D02*
X147219000Y-93092900D01*
X147349300Y-92748700D02*
X147291200Y-92857300D01*
X150864900Y-86182800D02*
X147349300Y-92748700D01*
X150990700Y-85139200D02*
X150781000Y-84843400D01*
X151036100Y-85863100D02*
X150990700Y-85139200D01*
X150864900Y-86182800D02*
X151036100Y-85863100D01*
X150353800Y-84240800D02*
X150781000Y-84843400D01*
X150111800Y-83957700D02*
X150015200Y-83879300D01*
X150281900Y-84139300D02*
X150111800Y-83957700D01*
X150353800Y-84240800D02*
X150281900Y-84139300D01*
X142709500Y-77948000D02*
X150015200Y-83879300D01*
X142486700Y-77767100D02*
X142709500Y-77948000D01*
X142240000Y-77249000D02*
X142486700Y-77767100D01*
X142240000Y-76962000D02*
X142240000Y-77249000D01*
X142153500Y-76471800D02*
X142069900Y-76327000D01*
X142240000Y-76794800D02*
X142153500Y-76471800D01*
X142240000Y-76962000D02*
X142240000Y-76794800D01*
X140970000Y-74422000D02*
X142069900Y-76327000D01*
X149686800Y-93658400D02*
X145923000Y-108356400D01*
X149714800Y-93521100D02*
X149719600Y-93474600D01*
X149698400Y-93613100D02*
X149714800Y-93521100D01*
X149686800Y-93658400D02*
X149698400Y-93613100D01*
X149746400Y-93215400D02*
X149719600Y-93474600D01*
X149773700Y-92950400D02*
X149746400Y-93215400D01*
X150037800Y-92487600D02*
X149773700Y-92950400D01*
X150252000Y-92329200D02*
X150037800Y-92487600D01*
X156632900Y-87611900D02*
X150252000Y-92329200D01*
X156867800Y-87370600D02*
X156916800Y-87268700D01*
X156723800Y-87544700D02*
X156867800Y-87370600D01*
X156632900Y-87611900D02*
X156723800Y-87544700D01*
X157412600Y-86237000D02*
X156916800Y-87268700D01*
X157558200Y-85763900D02*
X157558200Y-85598000D01*
X157484500Y-86087500D02*
X157558200Y-85763900D01*
X157412600Y-86237000D02*
X157484500Y-86087500D01*
X157558200Y-83828000D02*
X157558200Y-85598000D01*
X157521800Y-83547600D02*
X157486100Y-83460000D01*
X157558200Y-83733400D02*
X157521800Y-83547600D01*
X157558200Y-83828000D02*
X157558200Y-83733400D01*
X155033900Y-77441200D02*
X157486100Y-83460000D01*
X154987400Y-77327100D02*
X155033900Y-77441200D01*
X154940000Y-77085200D02*
X154987400Y-77327100D01*
X154940000Y-76962000D02*
X154940000Y-77085200D01*
X153922600Y-75692000D02*
X153670000Y-75692000D01*
X154389400Y-75885300D02*
X153922600Y-75692000D01*
X154746700Y-76242600D02*
X154389400Y-75885300D01*
X154940000Y-76709400D02*
X154746700Y-76242600D01*
X154940000Y-76962000D02*
X154940000Y-76709400D01*
X153417400Y-75692000D02*
X153670000Y-75692000D01*
X152950600Y-75498700D02*
X153417400Y-75692000D01*
X152593300Y-75141400D02*
X152950600Y-75498700D01*
X152400000Y-74674600D02*
X152593300Y-75141400D01*
X152400000Y-74422000D02*
X152400000Y-74674600D01*
X151384900Y-73152500D02*
X151132600Y-73152000D01*
X151850700Y-73346300D02*
X151384900Y-73152500D01*
X152207200Y-73703500D02*
X151850700Y-73346300D01*
X152400000Y-74169700D02*
X152207200Y-73703500D01*
X152400000Y-74422000D02*
X152400000Y-74169700D01*
X148592600Y-73146900D02*
X151132600Y-73152000D01*
X148590000Y-73146900D02*
X148592600Y-73146900D01*
X146050000Y-73146900D02*
X148590000Y-73146900D01*
X145555700Y-73234600D02*
X145409900Y-73319200D01*
X145881400Y-73146900D02*
X145555700Y-73234600D01*
X146050000Y-73146900D02*
X145881400Y-73146900D01*
X143510000Y-74422000D02*
X145409900Y-73319200D01*
X152079200Y-85164000D02*
X152426600Y-87112700D01*
X152044400Y-84999200D02*
X152029400Y-84945100D01*
X152069300Y-85108700D02*
X152044400Y-84999200D01*
X152079200Y-85164000D02*
X152069300Y-85108700D01*
X149906300Y-77301900D02*
X152029400Y-84945100D01*
X149837900Y-77055600D02*
X149906300Y-77301900D01*
X149902300Y-76548400D02*
X149837900Y-77055600D01*
X150030100Y-76327000D02*
X149902300Y-76548400D01*
X151130000Y-74422000D02*
X150030100Y-76327000D01*
X157364200Y-93451300D02*
X158623000Y-108356400D01*
X157355300Y-93345400D02*
X157364200Y-93451300D01*
X157373000Y-93133500D02*
X157355300Y-93345400D01*
X157399500Y-93030500D02*
X157373000Y-93133500D01*
X159110100Y-86376200D02*
X157399500Y-93030500D01*
X159183600Y-86011200D02*
X159195100Y-85887500D01*
X159141000Y-86255900D02*
X159183600Y-86011200D01*
X159110100Y-86376200D02*
X159141000Y-86255900D01*
X160014500Y-77079700D02*
X159195100Y-85887500D01*
X159018000Y-75692000D02*
X158750000Y-75692000D01*
X159508200Y-75908600D02*
X159018000Y-75692000D01*
X159869200Y-76304700D02*
X159508200Y-75908600D01*
X160039300Y-76812900D02*
X159869200Y-76304700D01*
X160014500Y-77079700D02*
X160039300Y-76812900D01*
X158582800Y-75692000D02*
X158750000Y-75692000D01*
X158259800Y-75605500D02*
X158582800Y-75692000D01*
X158115000Y-75521900D02*
X158259800Y-75605500D01*
X156210000Y-74422000D02*
X158115000Y-75521900D01*
X159904200Y-93451300D02*
X161163000Y-108356400D01*
X159897600Y-93373400D02*
X159904200Y-93451300D01*
X159903700Y-93217100D02*
X159897600Y-93373400D01*
X159916400Y-93140000D02*
X159903700Y-93217100D01*
X162543200Y-77168100D02*
X159916400Y-93140000D01*
X161569600Y-75692000D02*
X161290000Y-75692000D01*
X162077200Y-75926900D02*
X161569600Y-75692000D01*
X162439200Y-76353200D02*
X162077200Y-75926900D01*
X162588600Y-76892200D02*
X162439200Y-76353200D01*
X162543200Y-77168100D02*
X162588600Y-76892200D01*
X161122800Y-75692000D02*
X161290000Y-75692000D01*
X160799800Y-75605500D02*
X161122800Y-75692000D01*
X160655000Y-75521900D02*
X160799800Y-75605500D01*
X158750000Y-74422000D02*
X160655000Y-75521900D01*
D21*
X131581800Y-73253800D02*
X133350000Y-74422000D01*
X131238500Y-73082900D02*
X131113200Y-73055100D01*
X131474700Y-73183100D02*
X131238500Y-73082900D01*
X131581800Y-73253800D02*
X131474700Y-73183100D01*
X128692400Y-72518100D02*
X131113200Y-73055100D01*
X128376500Y-72471800D02*
X128270000Y-72471800D01*
X128588400Y-72495000D02*
X128376500Y-72471800D01*
X128692400Y-72518100D02*
X128588400Y-72495000D01*
X107950000Y-72471800D02*
X128270000Y-72471800D01*
X107950000Y-72471800D02*
X107844400Y-72474700D01*
X97714200Y-73024000D02*
X107844400Y-72474700D01*
X97173800Y-73151100D02*
X97018200Y-73253800D01*
X97528000Y-73034100D02*
X97173800Y-73151100D01*
X97714200Y-73024000D02*
X97528000Y-73034100D01*
X95250000Y-74422000D02*
X97018200Y-73253800D01*
X110490000Y-89789000D02*
X113030000Y-89789000D01*
X129937100Y-103689500D02*
X128143000Y-108356400D01*
X129946200Y-103666800D02*
X129937100Y-103689500D01*
X134482000Y-92809800D02*
X129946200Y-103666800D01*
X134588300Y-92555200D02*
X134482000Y-92809800D01*
X134979600Y-92166100D02*
X134588300Y-92555200D01*
X135234700Y-92061100D02*
X134979600Y-92166100D01*
X136486100Y-91546300D02*
X135234700Y-92061100D01*
X137040600Y-91212300D02*
X137184600Y-91049900D01*
X136686800Y-91463700D02*
X137040600Y-91212300D01*
X136486100Y-91546300D02*
X136686800Y-91463700D01*
X138303000Y-89789000D02*
X137184600Y-91049900D01*
X113030000Y-89789000D02*
X115443000Y-93345000D01*
X170165400Y-93473400D02*
X168783000Y-108356400D01*
X170171000Y-93386400D02*
X170171200Y-93357400D01*
X170168100Y-93444500D02*
X170171000Y-93386400D01*
X170165400Y-93473400D02*
X170168100Y-93444500D01*
X170310100Y-77816900D02*
X170171200Y-93357400D01*
X170310100Y-77812000D02*
X170310100Y-77816900D01*
X170310100Y-74422000D02*
X170310100Y-77812000D01*
X169226000Y-73031000D02*
X168953300Y-73022600D01*
X169725300Y-73251500D02*
X169226000Y-73031000D01*
X170105200Y-73643300D02*
X169725300Y-73251500D01*
X170310100Y-74149100D02*
X170105200Y-73643300D01*
X170310100Y-74422000D02*
X170310100Y-74149100D01*
X151190300Y-72472700D02*
X168953300Y-73022600D01*
X151190300Y-72472700D02*
X151130000Y-72471800D01*
X140970000Y-72471800D02*
X151130000Y-72471800D01*
X140784200Y-72479700D02*
X140722700Y-72487500D01*
X140908000Y-72471800D02*
X140784200Y-72479700D01*
X140970000Y-72471800D02*
X140908000Y-72471800D01*
X139046300Y-72701800D02*
X140722700Y-72487500D01*
X139022400Y-72704600D02*
X139046300Y-72701800D01*
X135751900Y-73028700D02*
X139022400Y-72704600D01*
X135260600Y-73159800D02*
X135118200Y-73253800D01*
X135582100Y-73045500D02*
X135260600Y-73159800D01*
X135751900Y-73028700D02*
X135582100Y-73045500D01*
X133350000Y-74422000D02*
X135118200Y-73253800D01*
D22*
X168184000Y-77827500D02*
X166243000Y-93345000D01*
X168185000Y-77815900D02*
X168185000Y-77812000D01*
X168184500Y-77823600D02*
X168185000Y-77815900D01*
X168184000Y-77827500D02*
X168184500Y-77823600D01*
X168185000Y-77687000D02*
X168185000Y-77812000D01*
X168910000Y-76962000D02*
X168185000Y-77687000D01*
X167524200Y-108463100D02*
X166243000Y-93345000D01*
X167532100Y-108534800D02*
X167536000Y-108558600D01*
X167526200Y-108487100D02*
X167532100Y-108534800D01*
X167524200Y-108463100D02*
X167526200Y-108487100D01*
X168144400Y-112311500D02*
X167536000Y-108558600D01*
X168145200Y-112316500D02*
X168144400Y-112311500D01*
X168146000Y-112326500D02*
X168145200Y-112316500D01*
X168146000Y-112331500D02*
X168146000Y-112326500D01*
X168146000Y-112456500D02*
X168146000Y-112331500D01*
X168783000Y-115887500D02*
X168146000Y-112456500D01*
X166370000Y-76962000D02*
X163703000Y-93345000D01*
X164984200Y-108463100D02*
X163703000Y-93345000D01*
X164992100Y-108534800D02*
X164996000Y-108558600D01*
X164986200Y-108487100D02*
X164992100Y-108534800D01*
X164984200Y-108463100D02*
X164986200Y-108487100D01*
X165604400Y-112311500D02*
X164996000Y-108558600D01*
X165605200Y-112316500D02*
X165604400Y-112311500D01*
X165606000Y-112326500D02*
X165605200Y-112316500D01*
X165606000Y-112331500D02*
X165606000Y-112326500D01*
X165606000Y-112456500D02*
X165606000Y-112331500D01*
X166243000Y-115887500D02*
X165606000Y-112456500D01*
X163830000Y-76962000D02*
X161163000Y-93345000D01*
X162444200Y-108463100D02*
X161163000Y-93345000D01*
X162452100Y-108534800D02*
X162456000Y-108558600D01*
X162446200Y-108487100D02*
X162452100Y-108534800D01*
X162444200Y-108463100D02*
X162446200Y-108487100D01*
X163064400Y-112311500D02*
X162456000Y-108558600D01*
X163065200Y-112316500D02*
X163064400Y-112311500D01*
X163066000Y-112326500D02*
X163065200Y-112316500D01*
X163066000Y-112331500D02*
X163066000Y-112326500D01*
X163066000Y-112456500D02*
X163066000Y-112331500D01*
X163703000Y-115887500D02*
X163066000Y-112456500D01*
X161290000Y-76962000D02*
X158623000Y-93345000D01*
X159904200Y-108463100D02*
X158623000Y-93345000D01*
X159912100Y-108534800D02*
X159916000Y-108558600D01*
X159906200Y-108487100D02*
X159912100Y-108534800D01*
X159904200Y-108463100D02*
X159906200Y-108487100D01*
X160524400Y-112311500D02*
X159916000Y-108558600D01*
X160525200Y-112316500D02*
X160524400Y-112311500D01*
X160526000Y-112326500D02*
X160525200Y-112316500D01*
X160526000Y-112331500D02*
X160526000Y-112326500D01*
X160526000Y-112456500D02*
X160526000Y-112331500D01*
X161163000Y-115887500D02*
X160526000Y-112456500D01*
X158511900Y-86454200D02*
X156083000Y-93345000D01*
X158656000Y-85837100D02*
X158658300Y-85625300D01*
X158582300Y-86254400D02*
X158656000Y-85837100D01*
X158511900Y-86454200D02*
X158582300Y-86254400D01*
X158750000Y-76962000D02*
X158658300Y-85625300D01*
X157364200Y-108463100D02*
X156083000Y-93345000D01*
X157372100Y-108534800D02*
X157376000Y-108558600D01*
X157366200Y-108487100D02*
X157372100Y-108534800D01*
X157364200Y-108463100D02*
X157366200Y-108487100D01*
X157984400Y-112311500D02*
X157376000Y-108558600D01*
X157985200Y-112316500D02*
X157984400Y-112311500D01*
X157986000Y-112326500D02*
X157985200Y-112316500D01*
X157986000Y-112331500D02*
X157986000Y-112326500D01*
X157986000Y-112456500D02*
X157986000Y-112331500D01*
X158623000Y-115887500D02*
X157986000Y-112456500D01*
X155708000Y-83953000D02*
X156083000Y-84328000D01*
X155708000Y-83828000D02*
X155708000Y-83953000D01*
X155697200Y-83773800D02*
X155686800Y-83758400D01*
X155708000Y-83809400D02*
X155697200Y-83773800D01*
X155708000Y-83828000D02*
X155708000Y-83809400D01*
X151130000Y-76962000D02*
X155686800Y-83758400D01*
X152261800Y-108463100D02*
X153543000Y-93345000D01*
X152259700Y-108487100D02*
X152261800Y-108463100D01*
X152253900Y-108534800D02*
X152259700Y-108487100D01*
X152250000Y-108558600D02*
X152253900Y-108534800D01*
X151641600Y-112311500D02*
X152250000Y-108558600D01*
X151640000Y-112326500D02*
X151640000Y-112331500D01*
X151640800Y-112316500D02*
X151640000Y-112326500D01*
X151641600Y-112311500D02*
X151640800Y-112316500D01*
X151640000Y-112456500D02*
X151640000Y-112331500D01*
X151003000Y-115887500D02*
X151640000Y-112456500D01*
X155486100Y-84749100D02*
X153255000Y-87488500D01*
X155503900Y-84727200D02*
X155486100Y-84749100D01*
X155554800Y-84703000D02*
X155503900Y-84727200D01*
X155583000Y-84703000D02*
X155554800Y-84703000D01*
X155708000Y-84703000D02*
X155583000Y-84703000D01*
X156083000Y-84328000D02*
X155708000Y-84703000D01*
X149708300Y-92075200D02*
X148463000Y-93345000D01*
X149743700Y-92039100D02*
X149708300Y-92075200D01*
X149818500Y-91970900D02*
X149743700Y-92039100D01*
X149857700Y-91939000D02*
X149818500Y-91970900D01*
X156083000Y-86868000D02*
X149857700Y-91939000D01*
X156716800Y-86271900D02*
X156083000Y-86868000D01*
X157008100Y-85789400D02*
X157008100Y-85598000D01*
X156856200Y-86140800D02*
X157008100Y-85789400D01*
X156716800Y-86271900D02*
X156856200Y-86140800D01*
X157008100Y-83828000D02*
X157008100Y-85598000D01*
X156985900Y-83683800D02*
X156964200Y-83639900D01*
X157008100Y-83779100D02*
X156985900Y-83683800D01*
X157008100Y-83828000D02*
X157008100Y-83779100D01*
X153670000Y-76962000D02*
X156964200Y-83639900D01*
X154235900Y-112227300D02*
X154959700Y-111747100D01*
X154180000Y-112300100D02*
X154180000Y-112331500D01*
X154209700Y-112244700D02*
X154180000Y-112300100D01*
X154235900Y-112227300D02*
X154209700Y-112244700D01*
X154180000Y-112456500D02*
X154180000Y-112331500D01*
X153543000Y-115887500D02*
X154180000Y-112456500D01*
X137222600Y-107701700D02*
X145923000Y-93345000D01*
X137731300Y-109523600D02*
X138029400Y-109589700D01*
X137261300Y-109133600D02*
X137731300Y-109523600D01*
X137021300Y-108572000D02*
X137261300Y-109133600D01*
X137064400Y-107962800D02*
X137021300Y-108572000D01*
X137222600Y-107701700D02*
X137064400Y-107962800D01*
X140450300Y-110126800D02*
X138029400Y-109589700D01*
X140821600Y-110174000D02*
X140946400Y-110166800D01*
X140572400Y-110153900D02*
X140821600Y-110174000D01*
X140450300Y-110126800D02*
X140572400Y-110153900D01*
X141639000Y-110127300D02*
X140946400Y-110166800D01*
X141669700Y-110125600D02*
X141639000Y-110127300D01*
X141731200Y-110127300D02*
X141669700Y-110125600D01*
X141761700Y-110130700D02*
X141731200Y-110127300D01*
X144552400Y-110445600D02*
X141761700Y-110130700D01*
X144640000Y-110455500D02*
X144552400Y-110445600D01*
X144805400Y-110516700D02*
X144640000Y-110455500D01*
X144878400Y-110566200D02*
X144805400Y-110516700D01*
X147630800Y-112434900D02*
X144878400Y-110566200D01*
X147682200Y-112456500D02*
X147701000Y-112456500D01*
X147646300Y-112445400D02*
X147682200Y-112456500D01*
X147630800Y-112434900D02*
X147646300Y-112445400D01*
X147826000Y-112456500D02*
X147701000Y-112456500D01*
X148463000Y-115887500D02*
X147826000Y-112456500D01*
X145262200Y-112258200D02*
X144471100Y-111166100D01*
X145273800Y-112274200D02*
X145262200Y-112258200D01*
X145286000Y-112311700D02*
X145273800Y-112274200D01*
X145286000Y-112331500D02*
X145286000Y-112311700D01*
X145286000Y-112456500D02*
X145286000Y-112331500D01*
X145923000Y-115887500D02*
X145286000Y-112456500D01*
X140308800Y-89509600D02*
X140843000Y-93345000D01*
X139360800Y-87949300D02*
X138741600Y-87811900D01*
X140221300Y-88881400D02*
X139360800Y-87949300D01*
X140308800Y-89509600D02*
X140221300Y-88881400D01*
X131479000Y-86200700D02*
X138741600Y-87811900D01*
X131479000Y-86200700D02*
X131454400Y-86195400D01*
X129026300Y-85674100D02*
X131454400Y-86195400D01*
X128648300Y-85608900D02*
X128520900Y-85597400D01*
X128901200Y-85647300D02*
X128648300Y-85608900D01*
X129026300Y-85674100D02*
X128901200Y-85647300D01*
X126001400Y-85370200D02*
X128520900Y-85597400D01*
X126001400Y-85370200D02*
X125909500Y-85362900D01*
X125384400Y-85326500D02*
X125909500Y-85362900D01*
X125247300Y-85317000D02*
X125384400Y-85326500D01*
X124975600Y-85274300D02*
X125247300Y-85317000D01*
X124842200Y-85241300D02*
X124975600Y-85274300D01*
X124826600Y-85237400D02*
X124842200Y-85241300D01*
X124566900Y-85219100D02*
X124482800Y-85242800D01*
X124741700Y-85216400D02*
X124566900Y-85219100D01*
X124826600Y-85237400D02*
X124741700Y-85216400D01*
X123967100Y-85387600D02*
X124482800Y-85242800D01*
X123656100Y-85475000D02*
X123967100Y-85387600D01*
X123012100Y-85527300D02*
X123656100Y-85475000D01*
X122691000Y-85491400D02*
X123012100Y-85527300D01*
X121431500Y-85350400D02*
X122691000Y-85491400D01*
X121276900Y-85341500D02*
X121225300Y-85344100D01*
X121380200Y-85344700D02*
X121276900Y-85341500D01*
X121431500Y-85350400D02*
X121380200Y-85344700D01*
X118221200Y-85495700D02*
X121225300Y-85344100D01*
X118077000Y-85506900D02*
X118029200Y-85513200D01*
X118173000Y-85498100D02*
X118077000Y-85506900D01*
X118221200Y-85495700D02*
X118173000Y-85498100D01*
X114892400Y-85928400D02*
X118029200Y-85513200D01*
X114779700Y-85941800D02*
X114892400Y-85928400D01*
X113441300Y-86082400D02*
X114779700Y-85941800D01*
X113327000Y-86094400D02*
X113441300Y-86082400D01*
X113097400Y-86105100D02*
X113327000Y-86094400D01*
X112982500Y-86103700D02*
X113097400Y-86105100D01*
X110534800Y-86074200D02*
X112982500Y-86103700D01*
X110241700Y-86081000D02*
X110144300Y-86090000D01*
X110437000Y-86073000D02*
X110241700Y-86081000D01*
X110534800Y-86074200D02*
X110437000Y-86073000D01*
X110135500Y-86090800D02*
X110144300Y-86090000D01*
X109966000Y-86106700D02*
X110135500Y-86090800D01*
X109625600Y-86095700D02*
X109966000Y-86106700D01*
X109457500Y-86068900D02*
X109625600Y-86095700D01*
X105104400Y-85375700D02*
X109457500Y-86068900D01*
X104960100Y-85352800D02*
X105104400Y-85375700D01*
X104689500Y-85242800D02*
X104960100Y-85352800D01*
X104570100Y-85158600D02*
X104689500Y-85242800D01*
X100330000Y-82169000D02*
X104570100Y-85158600D01*
X140214700Y-94441000D02*
X138303000Y-93345000D01*
X142165600Y-93325800D02*
X142044000Y-92953200D01*
X141944200Y-94077800D02*
X142165600Y-93325800D01*
X141336000Y-94572400D02*
X141944200Y-94077800D01*
X140554700Y-94635900D02*
X141336000Y-94572400D01*
X140214700Y-94441000D02*
X140554700Y-94635900D01*
X140751300Y-88990400D02*
X142044000Y-92953200D01*
X139527600Y-87422800D02*
X138860700Y-87274800D01*
X140539500Y-88340900D02*
X139527600Y-87422800D01*
X140751300Y-88990400D02*
X140539500Y-88340900D01*
X131598200Y-85663700D02*
X138860700Y-87274800D01*
X131598200Y-85663700D02*
X131565200Y-85656500D01*
X129135900Y-85137900D02*
X131565200Y-85656500D01*
X128648800Y-85057200D02*
X128484500Y-85045400D01*
X128974800Y-85103500D02*
X128648800Y-85057200D01*
X129135900Y-85137900D02*
X128974800Y-85103500D01*
X125957600Y-84863400D02*
X128484500Y-85045400D01*
X125957600Y-84863400D02*
X125908600Y-84860200D01*
X125438000Y-84831000D02*
X125908600Y-84860200D01*
X125317600Y-84823500D02*
X125438000Y-84831000D01*
X125079000Y-84786900D02*
X125317600Y-84823500D01*
X124961900Y-84757900D02*
X125079000Y-84786900D01*
X124946300Y-84754000D02*
X124961900Y-84757900D01*
X124543300Y-84718100D02*
X124410900Y-84747600D01*
X124814600Y-84721400D02*
X124543300Y-84718100D01*
X124946300Y-84754000D02*
X124814600Y-84721400D01*
X123672300Y-84911600D02*
X124410900Y-84747600D01*
X123436300Y-84964100D02*
X123672300Y-84911600D01*
X122953300Y-84986800D02*
X123436300Y-84964100D01*
X122713400Y-84956700D02*
X122953300Y-84986800D01*
X121516700Y-84806600D02*
X122713400Y-84956700D01*
X121277500Y-84790700D02*
X121197600Y-84794700D01*
X121437300Y-84796600D02*
X121277500Y-84790700D01*
X121516700Y-84806600D02*
X121437300Y-84796600D01*
X118193500Y-84946300D02*
X121197600Y-84794700D01*
X118010000Y-84960700D02*
X117949200Y-84968900D01*
X118132200Y-84949400D02*
X118010000Y-84960700D01*
X118193500Y-84946300D02*
X118132200Y-84949400D01*
X113489600Y-85571400D02*
X117949200Y-84968900D01*
X113363300Y-85588500D02*
X113489600Y-85571400D01*
X113108900Y-85603800D02*
X113363300Y-85588500D01*
X112981500Y-85602000D02*
X113108900Y-85603800D01*
X110549600Y-85567600D02*
X112981500Y-85602000D01*
X110209900Y-85575000D02*
X110097100Y-85585500D01*
X110436300Y-85566000D02*
X110209900Y-85575000D01*
X110549600Y-85567600D02*
X110436300Y-85566000D01*
X110088300Y-85586300D02*
X110097100Y-85585500D01*
X109945100Y-85599800D02*
X110088300Y-85586300D01*
X109657500Y-85589000D02*
X109945100Y-85599800D01*
X109515700Y-85565000D02*
X109657500Y-85589000D01*
X105183800Y-84831300D02*
X109515700Y-85565000D01*
X105049700Y-84808600D02*
X105183800Y-84831300D01*
X104816200Y-84669100D02*
X105049700Y-84808600D01*
X104732700Y-84561800D02*
X104816200Y-84669100D01*
X102870000Y-82169000D02*
X104732700Y-84561800D01*
X99553600Y-112277200D02*
X97663000Y-108356400D01*
X99559700Y-112289900D02*
X99553600Y-112277200D01*
X99566000Y-112317400D02*
X99559700Y-112289900D01*
X99566000Y-112331500D02*
X99566000Y-112317400D01*
X99566000Y-112456500D02*
X99566000Y-112331500D01*
X100203000Y-115887500D02*
X99566000Y-112456500D01*
X100330000Y-76962000D02*
X94924200Y-80414900D01*
X99991200Y-110207200D02*
X100203000Y-108356400D01*
X100312000Y-110961400D02*
X100600500Y-111006100D01*
X99958000Y-110497200D02*
X100312000Y-110961400D01*
X99991200Y-110207200D02*
X99958000Y-110497200D01*
X105277400Y-111731400D02*
X100600500Y-111006100D01*
X104416700Y-82886100D02*
X105304900Y-84116400D01*
X104209500Y-82599100D02*
X104416700Y-82886100D01*
X104165100Y-81892700D02*
X104209500Y-82599100D01*
X104334700Y-81582000D02*
X104165100Y-81892700D01*
X106524700Y-77570600D02*
X104334700Y-81582000D01*
X106680000Y-77121500D02*
X106680000Y-76962000D01*
X106601100Y-77430600D02*
X106680000Y-77121500D01*
X106524700Y-77570600D02*
X106601100Y-77430600D01*
X106680000Y-76794800D02*
X106680000Y-76962000D01*
X106766500Y-76471800D02*
X106680000Y-76794800D01*
X106850100Y-76327000D02*
X106766500Y-76471800D01*
X107950000Y-74422000D02*
X106850100Y-76327000D01*
X109515600Y-82911600D02*
X109883400Y-83394200D01*
X109395200Y-82753700D02*
X109515600Y-82911600D01*
X109266600Y-82378100D02*
X109395200Y-82753700D01*
X109264900Y-82179600D02*
X109266600Y-82378100D01*
X109220000Y-76973000D02*
X109264900Y-82179600D01*
X109218500Y-76803000D02*
X109220000Y-76973000D01*
X109305100Y-76474200D02*
X109218500Y-76803000D01*
X109390100Y-76327000D02*
X109305100Y-76474200D01*
X110490000Y-74422000D02*
X109390100Y-76327000D01*
X113933100Y-81367400D02*
X114338400Y-81742600D01*
X113803400Y-81247400D02*
X113933100Y-81367400D01*
X113687900Y-80913500D02*
X113803400Y-81247400D01*
X113715600Y-80739000D02*
X113687900Y-80913500D01*
X114284300Y-77161300D02*
X113715600Y-80739000D01*
X114239100Y-76516100D02*
X114129900Y-76327000D01*
X114318600Y-76945600D02*
X114239100Y-76516100D01*
X114284300Y-77161300D02*
X114318600Y-76945600D01*
X113030000Y-74422000D02*
X114129900Y-76327000D01*
X116612500Y-77687300D02*
X114412400Y-80849700D01*
X116854400Y-76646700D02*
X116669900Y-76327000D01*
X116823300Y-77384300D02*
X116854400Y-76646700D01*
X116612500Y-77687300D02*
X116823300Y-77384300D01*
X115570000Y-74422000D02*
X116669900Y-76327000D01*
X119063400Y-93999700D02*
X110363000Y-108356400D01*
X119225200Y-93614000D02*
X119239600Y-93474600D01*
X119136000Y-93879800D02*
X119225200Y-93614000D01*
X119063400Y-93999700D02*
X119136000Y-93879800D01*
X119266400Y-93215400D02*
X119239600Y-93474600D01*
X119274400Y-93137400D02*
X119266400Y-93215400D01*
X119309700Y-92984500D02*
X119274400Y-93137400D01*
X119336700Y-92910800D02*
X119309700Y-92984500D01*
X120477600Y-89793800D02*
X119336700Y-92910800D01*
X121683500Y-93844100D02*
X115443000Y-108356400D01*
X121798900Y-93319600D02*
X121769800Y-93141300D01*
X121754900Y-93678200D02*
X121798900Y-93319600D01*
X121683500Y-93844100D02*
X121754900Y-93678200D01*
X121118300Y-89154700D02*
X121769800Y-93141300D01*
X124198600Y-86503000D02*
X122679100Y-86221500D01*
X124304300Y-86524900D02*
X124198600Y-86503000D01*
X124423100Y-86552200D02*
X124304300Y-86524900D01*
X124489400Y-86568400D02*
X124423100Y-86552200D01*
X124489400Y-86568500D02*
X124489400Y-86568400D01*
X124611800Y-86590100D02*
X124653300Y-86590700D01*
X124529600Y-86578900D02*
X124611800Y-86590100D01*
X124489400Y-86568500D02*
X124529600Y-86578900D01*
X125530200Y-86605100D02*
X124653300Y-86590700D01*
X125530200Y-86605100D02*
X125603000Y-86605700D01*
X125703300Y-86605700D02*
X125603000Y-86605700D01*
X125903500Y-86618300D02*
X125703300Y-86605700D01*
X126003000Y-86630900D02*
X125903500Y-86618300D01*
X128502900Y-86947600D02*
X126003000Y-86630900D01*
X128565300Y-86955500D02*
X128502900Y-86947600D01*
X128689200Y-86976800D02*
X128565300Y-86955500D01*
X128750600Y-86990100D02*
X128689200Y-86976800D01*
X131176300Y-87516600D02*
X128750600Y-86990100D01*
X131186600Y-87518900D02*
X131176300Y-87516600D01*
X136028300Y-88593000D02*
X131186600Y-87518900D01*
X136420200Y-88679900D02*
X136028300Y-88593000D01*
X136949000Y-89283800D02*
X136420200Y-88679900D01*
X137018000Y-90083600D02*
X136949000Y-89283800D01*
X136600400Y-90769200D02*
X137018000Y-90083600D01*
X136229200Y-90921900D02*
X136600400Y-90769200D01*
X134977800Y-91436800D02*
X136229200Y-90921900D01*
X134043000Y-92138300D02*
X133880800Y-92499500D01*
X134611700Y-91587400D02*
X134043000Y-92138300D01*
X134977800Y-91436800D02*
X134611700Y-91587400D01*
X126990600Y-107838800D02*
X133880800Y-92499500D01*
X126896700Y-108126200D02*
X126886400Y-108226800D01*
X126949200Y-107931000D02*
X126896700Y-108126200D01*
X126990600Y-107838800D02*
X126949200Y-107931000D01*
X126859600Y-108486000D02*
X126886400Y-108226800D01*
X126850000Y-108558600D02*
X126859600Y-108486000D01*
X126241600Y-112311500D02*
X126850000Y-108558600D01*
X126240000Y-112326500D02*
X126240000Y-112331500D01*
X126240800Y-112316500D02*
X126240000Y-112326500D01*
X126241600Y-112311500D02*
X126240800Y-112316500D01*
X126240000Y-112456500D02*
X126240000Y-112331500D01*
X125603000Y-115887500D02*
X126240000Y-112456500D01*
X121467600Y-85914800D02*
X122679100Y-86221500D01*
X121307200Y-85890800D02*
X121253100Y-85893500D01*
X121415100Y-85901500D02*
X121307200Y-85890800D01*
X121467600Y-85914800D02*
X121415100Y-85901500D01*
X118248900Y-86045100D02*
X121253100Y-85893500D01*
X118141400Y-86053400D02*
X118105700Y-86058000D01*
X118213000Y-86046900D02*
X118141400Y-86053400D01*
X118248900Y-86045100D02*
X118213000Y-86046900D01*
X114952300Y-86467700D02*
X118105700Y-86058000D01*
X114692100Y-86494300D02*
X114952300Y-86467700D01*
X113359300Y-86593500D02*
X114692100Y-86494300D01*
X113266000Y-86600400D02*
X113359300Y-86593500D01*
X113079000Y-86606400D02*
X113266000Y-86600400D01*
X112985500Y-86605500D02*
X113079000Y-86606400D01*
X110522200Y-86580800D02*
X112985500Y-86605500D01*
X110182000Y-86593400D02*
X110069400Y-86608300D01*
X110408700Y-86579700D02*
X110182000Y-86593400D01*
X110522200Y-86580800D02*
X110408700Y-86579700D01*
X107573000Y-86938400D02*
X110069400Y-86608300D01*
X107388200Y-86968300D02*
X107327300Y-86981800D01*
X107511100Y-86946600D02*
X107388200Y-86968300D01*
X107573000Y-86938400D02*
X107511100Y-86946600D01*
X104906400Y-87518900D02*
X107327300Y-86981800D01*
X104523300Y-87635300D02*
X104402800Y-87693200D01*
X104775900Y-87547800D02*
X104523300Y-87635300D01*
X104906400Y-87518900D02*
X104775900Y-87547800D01*
X102339300Y-88684800D02*
X104402800Y-87693200D01*
X102339300Y-88684800D02*
X102279100Y-88715800D01*
X100330000Y-89789000D02*
X102279100Y-88715800D01*
X102351400Y-90812900D02*
X100330000Y-89789000D01*
X103855200Y-90426300D02*
X103942200Y-90198500D01*
X103511000Y-90771800D02*
X103855200Y-90426300D01*
X103056000Y-90947500D02*
X103511000Y-90771800D01*
X102568900Y-90923100D02*
X103056000Y-90947500D01*
X102351400Y-90812900D02*
X102568900Y-90923100D01*
X104265500Y-89351900D02*
X103942200Y-90198500D01*
X104375700Y-89063400D02*
X104265500Y-89351900D01*
X104843200Y-88659900D02*
X104375700Y-89063400D01*
X105144700Y-88593000D02*
X104843200Y-88659900D01*
X107565500Y-88055900D02*
X105144700Y-88593000D01*
X107656600Y-88038200D02*
X107565500Y-88055900D01*
X110127200Y-87624200D02*
X107656600Y-88038200D01*
X110220300Y-87608500D02*
X110127200Y-87624200D01*
X110408600Y-87593400D02*
X110220300Y-87608500D01*
X110503100Y-87594000D02*
X110408600Y-87593400D01*
X112997600Y-87608900D02*
X110503100Y-87594000D01*
X112997600Y-87608900D02*
X113099300Y-87608600D01*
X114412900Y-87591800D02*
X113099300Y-87608600D01*
X114902100Y-87567300D02*
X115064200Y-87547100D01*
X114576200Y-87589700D02*
X114902100Y-87567300D01*
X114412900Y-87591800D02*
X114576200Y-87589700D01*
X118250900Y-87148600D02*
X115064200Y-87547100D01*
X118285600Y-87144300D02*
X118250900Y-87148600D01*
X118355400Y-87142300D02*
X118285600Y-87144300D01*
X118390300Y-87144700D02*
X118355400Y-87142300D01*
X121240400Y-87339200D02*
X118390300Y-87144700D01*
X121240900Y-87339300D02*
X121240400Y-87339200D01*
X121240900Y-87339200D02*
X121240900Y-87339300D01*
X121310400Y-87345300D02*
X121240900Y-87339200D01*
X122545900Y-87476400D02*
X121310400Y-87345300D01*
X122612800Y-87481900D02*
X122635200Y-87482700D01*
X122568200Y-87478800D02*
X122612800Y-87481900D01*
X122545900Y-87476400D02*
X122568200Y-87478800D01*
X123789000Y-87522900D02*
X122635200Y-87482700D01*
X123825700Y-87524100D02*
X123789000Y-87522900D01*
X123898800Y-87530400D02*
X123825700Y-87524100D01*
X123935200Y-87535300D02*
X123898800Y-87530400D01*
X124057900Y-87552000D02*
X123935200Y-87535300D01*
X124100500Y-87557700D02*
X124057900Y-87552000D01*
X124184700Y-87574200D02*
X124100500Y-87557700D01*
X124226300Y-87585000D02*
X124184700Y-87574200D01*
X124226300Y-87585100D02*
X124226300Y-87585000D01*
X124602200Y-87644400D02*
X124729200Y-87639700D01*
X124349400Y-87617000D02*
X124602200Y-87644400D01*
X124226300Y-87585100D02*
X124349400Y-87617000D01*
X125522700Y-87610500D02*
X124729200Y-87639700D01*
X125631300Y-87606500D02*
X125522700Y-87610500D01*
X125848100Y-87620100D02*
X125631300Y-87606500D01*
X125955300Y-87637700D02*
X125848100Y-87620100D01*
X128429000Y-88042800D02*
X125955300Y-87637700D01*
X128522300Y-88060600D02*
X128429000Y-88042800D01*
X130945600Y-88592400D02*
X128522300Y-88060600D01*
X131345600Y-88680200D02*
X130945600Y-88592400D01*
X131879200Y-89301600D02*
X131345600Y-88680200D01*
X131931900Y-90118900D02*
X131879200Y-89301600D01*
X131482400Y-90803600D02*
X131931900Y-90118900D01*
X131097000Y-90942000D02*
X131482400Y-90803600D01*
X127716100Y-92156000D02*
X131097000Y-90942000D01*
X126923700Y-92852900D02*
X126886400Y-93215400D01*
X127373100Y-92279100D02*
X126923700Y-92852900D01*
X127716100Y-92156000D02*
X127373100Y-92279100D01*
X126859600Y-93474600D02*
X126886400Y-93215400D01*
X126849800Y-93570100D02*
X126859600Y-93474600D01*
X126801400Y-93755900D02*
X126849800Y-93570100D01*
X126763500Y-93844100D02*
X126801400Y-93755900D01*
X120523000Y-108356400D02*
X126763500Y-93844100D01*
X134261900Y-90438300D02*
X123063000Y-108356400D01*
X133779600Y-88657600D02*
X133488300Y-88593000D01*
X134237500Y-89040200D02*
X133779600Y-88657600D01*
X134468200Y-89590500D02*
X134237500Y-89040200D01*
X134420000Y-90185300D02*
X134468200Y-89590500D01*
X134261900Y-90438300D02*
X134420000Y-90185300D01*
X131067500Y-88055900D02*
X133488300Y-88593000D01*
X131061500Y-88054600D02*
X131067500Y-88055900D01*
X128637000Y-87525500D02*
X131061500Y-88054600D01*
X128516300Y-87502100D02*
X128475800Y-87496200D01*
X128597000Y-87516800D02*
X128516300Y-87502100D01*
X128637000Y-87525500D02*
X128597000Y-87516800D01*
X125988300Y-87135100D02*
X128475800Y-87496200D01*
X125681100Y-87106400D02*
X125578200Y-87107400D01*
X125886500Y-87120300D02*
X125681100Y-87106400D01*
X125988300Y-87135100D02*
X125886500Y-87120300D01*
X124676100Y-87115700D02*
X125578200Y-87107400D01*
X124595600Y-87116500D02*
X124676100Y-87115700D01*
X124435800Y-87096900D02*
X124595600Y-87116500D01*
X124357900Y-87076700D02*
X124435800Y-87096900D01*
X124251300Y-87051900D02*
X124215400Y-87045400D01*
X124322600Y-87067600D02*
X124251300Y-87051900D01*
X124357900Y-87076700D02*
X124322600Y-87067600D01*
X124094400Y-87023400D02*
X124215400Y-87045400D01*
X123896200Y-86996500D02*
X123829500Y-86993500D01*
X124028700Y-87011500D02*
X123896200Y-86996500D01*
X124094400Y-87023400D02*
X124028700Y-87011500D01*
X122646200Y-86939200D02*
X123829500Y-86993500D01*
X122610800Y-86937600D02*
X122646200Y-86939200D01*
X122540800Y-86927400D02*
X122610800Y-86937600D01*
X122506400Y-86918900D02*
X122540800Y-86927400D01*
X121289600Y-86617700D02*
X122506400Y-86918900D01*
X118351600Y-86592900D02*
X121289600Y-86617700D01*
X118222500Y-86597600D02*
X118179700Y-86603100D01*
X118308500Y-86592500D02*
X118222500Y-86597600D01*
X118351600Y-86592900D02*
X118308500Y-86592500D01*
X115009400Y-87007200D02*
X118179700Y-86603100D01*
X114900000Y-87021100D02*
X115009400Y-87007200D01*
X114680200Y-87039900D02*
X114900000Y-87021100D01*
X114570000Y-87044700D02*
X114680200Y-87039900D01*
X113245500Y-87102600D02*
X114570000Y-87044700D01*
X112990600Y-87107100D02*
X113245500Y-87102600D01*
X110511500Y-87087400D02*
X112990600Y-87107100D01*
X110194300Y-87101500D02*
X110089600Y-87117100D01*
X110405600Y-87086600D02*
X110194300Y-87101500D01*
X110511500Y-87087400D02*
X110405600Y-87086600D01*
X107605400Y-87489400D02*
X110089600Y-87117100D01*
X107605400Y-87489400D02*
X107446400Y-87518900D01*
X105025500Y-88055900D02*
X107446400Y-87518900D01*
X104346800Y-88345900D02*
X104169300Y-88519300D01*
X104783200Y-88109600D02*
X104346800Y-88345900D01*
X105025500Y-88055900D02*
X104783200Y-88109600D01*
X102870000Y-89789000D02*
X104169300Y-88519300D01*
X123063000Y-112331500D02*
X123063000Y-108356400D01*
X123063000Y-112456500D02*
X123063000Y-112331500D01*
X123063000Y-115887500D02*
X123063000Y-112456500D01*
X124434200Y-112208100D02*
X125603000Y-108356400D01*
X124416700Y-112292600D02*
X124416000Y-112321400D01*
X124425800Y-112235700D02*
X124416700Y-112292600D01*
X124434200Y-112208100D02*
X124425800Y-112235700D01*
X124250000Y-119328600D02*
X124416000Y-112321400D01*
X124249700Y-119341400D02*
X124250000Y-119328600D01*
X124247500Y-119367000D02*
X124249700Y-119341400D01*
X124245700Y-119379700D02*
X124247500Y-119367000D01*
X124227900Y-119502100D02*
X124245700Y-119379700D01*
X124206000Y-119652200D02*
X124227900Y-119502100D01*
X123976700Y-119850600D02*
X124206000Y-119652200D01*
X123825000Y-119850600D02*
X123976700Y-119850600D01*
X122843300Y-119850600D02*
X123825000Y-119850600D01*
X122838100Y-119850600D02*
X122843300Y-119850600D01*
X122838100Y-119850700D02*
X122838100Y-119850600D01*
X122828300Y-119850700D02*
X122838100Y-119850700D01*
X122828300Y-119850600D02*
X122828300Y-119850700D01*
X122823200Y-119850600D02*
X122828300Y-119850600D01*
X122301000Y-119850600D02*
X122823200Y-119850600D01*
X122244500Y-119850600D02*
X122301000Y-119850600D01*
X122135900Y-119819900D02*
X122244500Y-119850600D01*
X122087800Y-119790300D02*
X122135900Y-119819900D01*
X121350500Y-119337000D02*
X122087800Y-119790300D01*
X121302300Y-119318500D02*
X121285000Y-119318500D01*
X121335700Y-119327900D02*
X121302300Y-119318500D01*
X121350500Y-119337000D02*
X121335700Y-119327900D01*
X121160000Y-119318500D02*
X121285000Y-119318500D01*
X120523000Y-115887500D02*
X121160000Y-119318500D01*
X121902500Y-107857300D02*
X128143000Y-93345000D01*
X121816200Y-108131300D02*
X121806400Y-108226800D01*
X121864600Y-107945500D02*
X121816200Y-108131300D01*
X121902500Y-107857300D02*
X121864600Y-107945500D01*
X121779600Y-108486000D02*
X121806400Y-108226800D01*
X121758600Y-108689500D02*
X121779600Y-108486000D01*
X121590300Y-109062500D02*
X121758600Y-108689500D01*
X121451600Y-109212900D02*
X121590300Y-109062500D01*
X118653100Y-112246700D02*
X121451600Y-109212900D01*
X118620000Y-112307900D02*
X118620000Y-112331500D01*
X118637100Y-112264000D02*
X118620000Y-112307900D01*
X118653100Y-112246700D02*
X118637100Y-112264000D01*
X118620000Y-112456500D02*
X118620000Y-112331500D01*
X117983000Y-115887500D02*
X118620000Y-112456500D01*
X119362500Y-107857300D02*
X125603000Y-93345000D01*
X119276200Y-108131300D02*
X119266400Y-108226800D01*
X119324600Y-107945500D02*
X119276200Y-108131300D01*
X119362500Y-107857300D02*
X119324600Y-107945500D01*
X119239600Y-108486000D02*
X119266400Y-108226800D01*
X119218600Y-108689500D02*
X119239600Y-108486000D01*
X119050300Y-109062500D02*
X119218600Y-108689500D01*
X118911600Y-109212900D02*
X119050300Y-109062500D01*
X116113100Y-112246700D02*
X118911600Y-109212900D01*
X116080000Y-112307900D02*
X116080000Y-112331500D01*
X116097100Y-112264000D02*
X116080000Y-112307900D01*
X116113100Y-112246700D02*
X116097100Y-112264000D01*
X116080000Y-112456500D02*
X116080000Y-112331500D01*
X115443000Y-115887500D02*
X116080000Y-112456500D01*
X121125200Y-87883300D02*
X118340900Y-87868100D01*
X121155900Y-87883500D02*
X121125200Y-87883300D01*
X121217200Y-87886800D02*
X121155900Y-87883500D01*
X121247800Y-87889900D02*
X121217200Y-87886800D01*
X122495200Y-88017600D02*
X121247800Y-87889900D01*
X122601200Y-88025700D02*
X122636600Y-88026500D01*
X122530400Y-88021200D02*
X122601200Y-88025700D01*
X122495200Y-88017600D02*
X122530400Y-88021200D01*
X123760000Y-88053000D02*
X122636600Y-88026500D01*
X123821900Y-88056500D02*
X123760000Y-88053000D01*
X123945900Y-88067600D02*
X123821900Y-88056500D01*
X123983600Y-88071000D02*
X123945900Y-88067600D01*
X124058200Y-88083900D02*
X123983600Y-88071000D01*
X124094800Y-88093400D02*
X124058200Y-88083900D01*
X124094800Y-88093500D02*
X124094800Y-88093400D01*
X124638200Y-88173300D02*
X124821300Y-88160600D01*
X124272500Y-88139500D02*
X124638200Y-88173300D01*
X124094800Y-88093500D02*
X124272500Y-88139500D01*
X125487600Y-88114700D02*
X124821300Y-88160600D01*
X125596500Y-88107200D02*
X125487600Y-88114700D01*
X125814300Y-88120500D02*
X125596500Y-88107200D01*
X125921400Y-88141200D02*
X125814300Y-88120500D01*
X126950500Y-88340000D02*
X125921400Y-88141200D01*
X126950500Y-88340000D02*
X127067000Y-88361400D01*
X128352300Y-88584700D02*
X127067000Y-88361400D01*
X128728400Y-88650100D02*
X128352300Y-88584700D01*
X129272600Y-89185700D02*
X128728400Y-88650100D01*
X129415100Y-89935800D02*
X129272600Y-89185700D01*
X129105500Y-90633700D02*
X129415100Y-89935800D01*
X128779600Y-90832500D02*
X129105500Y-90633700D01*
X127198600Y-91796900D02*
X128779600Y-90832500D01*
X126926900Y-91995100D02*
X126848300Y-92075200D01*
X127102800Y-91855400D02*
X126926900Y-91995100D01*
X127198600Y-91796900D02*
X127102800Y-91855400D01*
X125603000Y-93345000D02*
X126848300Y-92075200D01*
X117692900Y-87858300D02*
X118340900Y-87868100D01*
X117635000Y-87859500D02*
X117615700Y-87861200D01*
X117673600Y-87858000D02*
X117635000Y-87859500D01*
X117692900Y-87858300D02*
X117673600Y-87858000D01*
X114921800Y-88108100D02*
X117615700Y-87861200D01*
X114745100Y-88124300D02*
X114921800Y-88108100D01*
X114390500Y-88137100D02*
X114745100Y-88124300D01*
X114213100Y-88133600D02*
X114390500Y-88137100D01*
X113062900Y-88111000D02*
X114213100Y-88133600D01*
X113062900Y-88111000D02*
X113030000Y-88110700D01*
X113006200Y-88110700D02*
X113030000Y-88110700D01*
X110496800Y-88100600D02*
X113006200Y-88110700D01*
X110259900Y-88114500D02*
X110182000Y-88128900D01*
X110417600Y-88100300D02*
X110259900Y-88114500D01*
X110496800Y-88100600D02*
X110417600Y-88100300D01*
X107726500Y-88584500D02*
X110182000Y-88128900D01*
X107445100Y-88668500D02*
X107359100Y-88715800D01*
X107630000Y-88602400D02*
X107445100Y-88668500D01*
X107726500Y-88584500D02*
X107630000Y-88602400D01*
X105410000Y-89789000D02*
X107359100Y-88715800D01*
X116822500Y-107857300D02*
X123063000Y-93345000D01*
X116736200Y-108131300D02*
X116726400Y-108226800D01*
X116784600Y-107945500D02*
X116736200Y-108131300D01*
X116822500Y-107857300D02*
X116784600Y-107945500D01*
X116699600Y-108486000D02*
X116726400Y-108226800D01*
X116678600Y-108689500D02*
X116699600Y-108486000D01*
X116510300Y-109062500D02*
X116678600Y-108689500D01*
X116371600Y-109212900D02*
X116510300Y-109062500D01*
X113573100Y-112246700D02*
X116371600Y-109212900D01*
X113540000Y-112307900D02*
X113540000Y-112331500D01*
X113557100Y-112264000D02*
X113540000Y-112307900D01*
X113573100Y-112246700D02*
X113557100Y-112264000D01*
X113540000Y-112456500D02*
X113540000Y-112331500D01*
X112903000Y-115887500D02*
X113540000Y-112456500D01*
X114539100Y-88674300D02*
X117681900Y-88583300D01*
X114383000Y-88678800D02*
X114539100Y-88674300D01*
X114070700Y-88673700D02*
X114383000Y-88678800D01*
X113914800Y-88664200D02*
X114070700Y-88673700D01*
X113101900Y-88614500D02*
X113914800Y-88664200D01*
X113101900Y-88614500D02*
X113030000Y-88612300D01*
X113017300Y-88612300D02*
X113030000Y-88612300D01*
X110492300Y-88607300D02*
X113017300Y-88612300D01*
X110067900Y-88675900D02*
X109940200Y-88743000D01*
X110348000Y-88607000D02*
X110067900Y-88675900D01*
X110492300Y-88607300D02*
X110348000Y-88607000D01*
X107950000Y-89789000D02*
X109940200Y-88743000D01*
X114282500Y-107857300D02*
X120523000Y-93345000D01*
X114196200Y-108131300D02*
X114186400Y-108226800D01*
X114244600Y-107945500D02*
X114196200Y-108131300D01*
X114282500Y-107857300D02*
X114244600Y-107945500D01*
X114159600Y-108486000D02*
X114186400Y-108226800D01*
X114138600Y-108689500D02*
X114159600Y-108486000D01*
X113970300Y-109062500D02*
X114138600Y-108689500D01*
X113831600Y-109212900D02*
X113970300Y-109062500D01*
X111033100Y-112246700D02*
X113831600Y-109212900D01*
X111000000Y-112307900D02*
X111000000Y-112331500D01*
X111017100Y-112264000D02*
X111000000Y-112307900D01*
X111033100Y-112246700D02*
X111017100Y-112264000D01*
X111000000Y-112456500D02*
X111000000Y-112331500D01*
X110363000Y-115887500D02*
X111000000Y-112456500D01*
X109282600Y-107701700D02*
X117983000Y-93345000D01*
X109120800Y-108087400D02*
X109106400Y-108226800D01*
X109210000Y-107821600D02*
X109120800Y-108087400D01*
X109282600Y-107701700D02*
X109210000Y-107821600D01*
X109079600Y-108486000D02*
X109106400Y-108226800D01*
X109070000Y-108558600D02*
X109079600Y-108486000D01*
X108461600Y-112311500D02*
X109070000Y-108558600D01*
X108460000Y-112326500D02*
X108460000Y-112331500D01*
X108460800Y-112316500D02*
X108460000Y-112326500D01*
X108461600Y-112311500D02*
X108460800Y-112316500D01*
X108460000Y-112456500D02*
X108460000Y-112331500D01*
X107823000Y-115887500D02*
X108460000Y-112456500D01*
X110991300Y-92249000D02*
X112903000Y-93345000D01*
X110640800Y-92106100D02*
X110515000Y-92090900D01*
X110881400Y-92186000D02*
X110640800Y-92106100D01*
X110991300Y-92249000D02*
X110881400Y-92186000D01*
X103851500Y-91283400D02*
X110515000Y-92090900D01*
X103486800Y-91292300D02*
X103370500Y-91330100D01*
X103730100Y-91268700D02*
X103486800Y-91292300D01*
X103851500Y-91283400D02*
X103730100Y-91268700D01*
X103370600Y-91330300D02*
X103370500Y-91330100D01*
X103263400Y-91361000D02*
X103370600Y-91330300D01*
X102306500Y-91600500D02*
X103263400Y-91361000D01*
X101886600Y-91756700D02*
X101761100Y-91838400D01*
X102161200Y-91636900D02*
X101886600Y-91756700D01*
X102306500Y-91600500D02*
X102161200Y-91636900D01*
X101136200Y-92245700D02*
X101761100Y-91838400D01*
X112274700Y-94441000D02*
X110363000Y-93345000D01*
X112737700Y-94608300D02*
X112903000Y-94608300D01*
X112418100Y-94523200D02*
X112737700Y-94608300D01*
X112274700Y-94441000D02*
X112418100Y-94523200D01*
X115443000Y-94608300D02*
X112903000Y-94608300D01*
X116649800Y-93957700D02*
X116699600Y-93474600D01*
X115928600Y-94608300D02*
X116649800Y-93957700D01*
X115443000Y-94608300D02*
X115928600Y-94608300D01*
X116726400Y-93215400D02*
X116699600Y-93474600D01*
X116747100Y-93014500D02*
X116726400Y-93215400D01*
X116911600Y-92645800D02*
X116747100Y-93014500D01*
X117047300Y-92496200D02*
X116911600Y-92645800D01*
X119940500Y-89306600D02*
X117047300Y-92496200D01*
X119966600Y-89279400D02*
X119940500Y-89306600D01*
X120608600Y-88641600D02*
X119966600Y-89279400D01*
X120723400Y-88527600D02*
X120608600Y-88641600D01*
X121028300Y-88419100D02*
X120723400Y-88527600D01*
X121189300Y-88435000D02*
X121028300Y-88419100D01*
X122448600Y-88559200D02*
X121189300Y-88435000D01*
X122600400Y-88569800D02*
X122651100Y-88570300D01*
X122499100Y-88564200D02*
X122600400Y-88569800D01*
X122448600Y-88559200D02*
X122499100Y-88564200D01*
X123742800Y-88583300D02*
X122651100Y-88570300D01*
X123756200Y-88583700D02*
X123742800Y-88583300D01*
X123880900Y-88589300D02*
X123756200Y-88583700D01*
X123901700Y-88590300D02*
X123880900Y-88589300D01*
X123943000Y-88596500D02*
X123901700Y-88590300D01*
X123963200Y-88601700D02*
X123943000Y-88596500D01*
X124715700Y-88702000D02*
X124968200Y-88674500D01*
X124209100Y-88665300D02*
X124715700Y-88702000D01*
X123963200Y-88601700D02*
X124209100Y-88665300D01*
X125475500Y-88619200D02*
X124968200Y-88674500D01*
X125649400Y-88600300D02*
X125475500Y-88619200D01*
X125993100Y-88665200D02*
X125649400Y-88600300D01*
X126148100Y-88746200D02*
X125993100Y-88665200D01*
X128143000Y-89789000D02*
X126148100Y-88746200D01*
X105911300Y-92249000D02*
X107823000Y-93345000D01*
X105635300Y-92127600D02*
X105536500Y-92107400D01*
X105823800Y-92198900D02*
X105635300Y-92127600D01*
X105911300Y-92249000D02*
X105823800Y-92198900D01*
X103846700Y-91761300D02*
X105536500Y-92107400D01*
X103593700Y-91754300D02*
X103513000Y-91781000D01*
X103763400Y-91744200D02*
X103593700Y-91754300D01*
X103846700Y-91761300D02*
X103763400Y-91744200D01*
X102352300Y-92165400D02*
X103513000Y-91781000D01*
X101501300Y-92941200D02*
X101500400Y-93342200D01*
X101971600Y-92291500D02*
X101501300Y-92941200D01*
X102352300Y-92165400D02*
X101971600Y-92291500D01*
X101466300Y-108359300D02*
X101500400Y-93342200D01*
X101466000Y-108493900D02*
X101466300Y-108359300D01*
X101408700Y-108756900D02*
X101466000Y-108493900D01*
X101353000Y-108879400D02*
X101408700Y-108756900D01*
X100711600Y-110289600D02*
X101353000Y-108879400D01*
X104024200Y-108463100D02*
X102743000Y-93345000D01*
X104032000Y-108533700D02*
X104035700Y-108557100D01*
X104026200Y-108486700D02*
X104032000Y-108533700D01*
X104024200Y-108463100D02*
X104026200Y-108486700D01*
X104361500Y-110581900D02*
X104035700Y-108557100D01*
X99165500Y-90169500D02*
X100203000Y-93345000D01*
X99135400Y-90077400D02*
X99165500Y-90169500D01*
X99104900Y-89885900D02*
X99135400Y-90077400D01*
X99104900Y-89789000D02*
X99104900Y-89885900D01*
X99104900Y-82169000D02*
X99104900Y-89789000D01*
X99104900Y-81962800D02*
X99104900Y-82169000D01*
X99239900Y-81573200D02*
X99104900Y-81962800D01*
X99367400Y-81411200D02*
X99239900Y-81573200D01*
X102870000Y-76962000D02*
X99367400Y-81411200D01*
X98944200Y-108250100D02*
X100203000Y-93345000D01*
X98953000Y-108567600D02*
X98979400Y-108670500D01*
X98935300Y-108355900D02*
X98953000Y-108567600D01*
X98944200Y-108250100D02*
X98935300Y-108355900D01*
X99476500Y-110606700D02*
X98979400Y-108670500D01*
X99885600Y-111298800D02*
X100128700Y-111423800D01*
X99544500Y-110871500D02*
X99885600Y-111298800D01*
X99476500Y-110606700D02*
X99544500Y-110871500D01*
X101159300Y-111953400D02*
X100128700Y-111423800D01*
X101168500Y-111958100D02*
X101159300Y-111953400D01*
X101186500Y-111968500D02*
X101168500Y-111958100D01*
X101195200Y-111974100D02*
X101186500Y-111968500D01*
X101913300Y-112436600D02*
X101195200Y-111974100D01*
X101963000Y-112456500D02*
X101981000Y-112456500D01*
X101928400Y-112446400D02*
X101963000Y-112456500D01*
X101913300Y-112436600D02*
X101928400Y-112446400D01*
X102106000Y-112456500D02*
X101981000Y-112456500D01*
X102743000Y-115887500D02*
X102106000Y-112456500D01*
X103909700Y-92860500D02*
X103716700Y-92395800D01*
X103945000Y-92945500D02*
X103909700Y-92860500D01*
X103990200Y-93123900D02*
X103945000Y-92945500D01*
X103999600Y-93215400D02*
X103990200Y-93123900D01*
X104026400Y-93474600D02*
X103999600Y-93215400D01*
X104026400Y-93474600D02*
X104037700Y-93557600D01*
X106528300Y-108143800D02*
X104037700Y-93557600D01*
X106545800Y-108246700D02*
X106528300Y-108143800D01*
X106546700Y-108455500D02*
X106545800Y-108246700D01*
X106530000Y-108558600D02*
X106546700Y-108455500D01*
X105921600Y-112311500D02*
X106530000Y-108558600D01*
X105920000Y-112326500D02*
X105920000Y-112331500D01*
X105920800Y-112316500D02*
X105920000Y-112326500D01*
X105921600Y-112311500D02*
X105920800Y-112316500D01*
X105920000Y-112456500D02*
X105920000Y-112331500D01*
X105283000Y-115887500D02*
X105920000Y-112456500D01*
X140335000Y-73322100D02*
X138430000Y-74422000D01*
X140629700Y-73152000D02*
X140335000Y-73322100D01*
X141310300Y-73152000D02*
X140629700Y-73152000D01*
X141899700Y-73492300D02*
X141310300Y-73152000D01*
X142240000Y-74081700D02*
X141899700Y-73492300D01*
X142240000Y-74422000D02*
X142240000Y-74081700D01*
X143257400Y-75692000D02*
X143510000Y-75692000D01*
X142790600Y-75498700D02*
X143257400Y-75692000D01*
X142433300Y-75141400D02*
X142790600Y-75498700D01*
X142240000Y-74674600D02*
X142433300Y-75141400D01*
X142240000Y-74422000D02*
X142240000Y-74674600D01*
X143762600Y-75692000D02*
X143510000Y-75692000D01*
X144229400Y-75885300D02*
X143762600Y-75692000D01*
X144586700Y-76242600D02*
X144229400Y-75885300D01*
X144780000Y-76709400D02*
X144586700Y-76242600D01*
X144780000Y-76962000D02*
X144780000Y-76709400D01*
X144957900Y-77653900D02*
X145123300Y-77830400D01*
X144780000Y-77203900D02*
X144957900Y-77653900D01*
X144780000Y-76962000D02*
X144780000Y-77203900D01*
X150597900Y-83672100D02*
X145123300Y-77830400D01*
X150653300Y-83731200D02*
X150597900Y-83672100D01*
X150755700Y-83856600D02*
X150653300Y-83731200D01*
X150802500Y-83922600D02*
X150755700Y-83856600D01*
X151229800Y-84525300D02*
X150802500Y-83922600D01*
X151371600Y-84725300D02*
X151229800Y-84525300D01*
X151539600Y-85186000D02*
X151371600Y-84725300D01*
X151559800Y-85430300D02*
X151539600Y-85186000D01*
X151704000Y-87172500D02*
X151559800Y-85430300D01*
X151947400Y-87691500D02*
X152127000Y-87773000D01*
X151720300Y-87369000D02*
X151947400Y-87691500D01*
X151704000Y-87172500D02*
X151720300Y-87369000D01*
X152955400Y-88148800D02*
X152127000Y-87773000D01*
X153627200Y-88153300D02*
X153786400Y-87981900D01*
X153168400Y-88245500D02*
X153627200Y-88153300D01*
X152955400Y-88148800D02*
X153168400Y-88245500D01*
X155405100Y-86238500D02*
X153786400Y-87981900D01*
X155449200Y-86194100D02*
X155405100Y-86238500D01*
X156083000Y-85598000D02*
X155449200Y-86194100D01*
X139152100Y-112421100D02*
X139573000Y-112012000D01*
X139134600Y-112438100D02*
X139152100Y-112421100D01*
X139089400Y-112456500D02*
X139134600Y-112438100D01*
X139065000Y-112456500D02*
X139089400Y-112456500D01*
X138940000Y-112456500D02*
X139065000Y-112456500D01*
X138303000Y-115887500D02*
X138940000Y-112456500D01*
X140970000Y-76962000D02*
X138430000Y-76962000D01*
X140206000Y-112456500D02*
X140843000Y-115887500D01*
X140081000Y-112456500D02*
X140206000Y-112456500D01*
X140056600Y-112456500D02*
X140081000Y-112456500D01*
X140011400Y-112438100D02*
X140056600Y-112456500D01*
X139993900Y-112421100D02*
X140011400Y-112438100D01*
X139573000Y-112012000D02*
X139993900Y-112421100D01*
X135126000Y-112456500D02*
X135763000Y-115887500D01*
X135001000Y-112456500D02*
X135126000Y-112456500D01*
X134953600Y-112456500D02*
X135001000Y-112456500D01*
X134882600Y-112393600D02*
X134953600Y-112456500D01*
X134876900Y-112346500D02*
X134882600Y-112393600D01*
X134502800Y-109245500D02*
X134876900Y-112346500D01*
X134501200Y-109232800D02*
X134502800Y-109245500D01*
X134499700Y-109207400D02*
X134501200Y-109232800D01*
X134499700Y-109194600D02*
X134499700Y-109207400D01*
X134499700Y-107518200D02*
X134499700Y-109194600D01*
X134499800Y-107449600D02*
X134499700Y-107518200D01*
X134543000Y-107319200D02*
X134499800Y-107449600D01*
X134584000Y-107264200D02*
X134543000Y-107319200D01*
X144395900Y-94100000D02*
X134584000Y-107264200D01*
X144622100Y-93644600D02*
X144639600Y-93474600D01*
X144498000Y-93963000D02*
X144622100Y-93644600D01*
X144395900Y-94100000D02*
X144498000Y-93963000D01*
X144666400Y-93215400D02*
X144639600Y-93474600D01*
X144685500Y-93029900D02*
X144666400Y-93215400D01*
X144829300Y-92685800D02*
X144685500Y-93029900D01*
X144947800Y-92541900D02*
X144829300Y-92685800D01*
X150300400Y-86041800D02*
X144947800Y-92541900D01*
X150474100Y-85361800D02*
X150332200Y-85161500D01*
X150456400Y-85852300D02*
X150474100Y-85361800D01*
X150300400Y-86041800D02*
X150456400Y-85852300D01*
X149905000Y-84558900D02*
X150332200Y-85161500D01*
X149589700Y-84236500D02*
X149455600Y-84166400D01*
X149817500Y-84435500D02*
X149589700Y-84236500D01*
X149905000Y-84558900D02*
X149817500Y-84435500D01*
X137839100Y-78091900D02*
X149455600Y-84166400D01*
X137789900Y-78064800D02*
X137839100Y-78091900D01*
X135890000Y-76962000D02*
X137789900Y-78064800D01*
X131535300Y-112417900D02*
X131976200Y-111956800D01*
X131517600Y-112436400D02*
X131535300Y-112417900D01*
X131470600Y-112456500D02*
X131517600Y-112436400D01*
X131445000Y-112456500D02*
X131470600Y-112456500D01*
X131320000Y-112456500D02*
X131445000Y-112456500D01*
X130683000Y-115887500D02*
X131320000Y-112456500D01*
X133350000Y-76962000D02*
X130810000Y-76962000D01*
X132515700Y-112219100D02*
X131976200Y-111956800D01*
X132548000Y-112234800D02*
X132515700Y-112219100D01*
X132586000Y-112295600D02*
X132548000Y-112234800D01*
X132586000Y-112331500D02*
X132586000Y-112295600D01*
X132586000Y-112456500D02*
X132586000Y-112331500D01*
X133223000Y-115887500D02*
X132586000Y-112456500D01*
X125603000Y-82169000D02*
X128143000Y-82169000D01*
X128270000Y-76962000D02*
X128143000Y-82169000D01*
X128780000Y-112456500D02*
X128143000Y-115887500D01*
X128780000Y-112331500D02*
X128780000Y-112456500D01*
X128780000Y-112324300D02*
X128780000Y-112331500D01*
X128781700Y-112310000D02*
X128780000Y-112324300D01*
X128783300Y-112303000D02*
X128781700Y-112310000D01*
X130730600Y-103994500D02*
X128783300Y-112303000D01*
X99695000Y-75862100D02*
X97790000Y-76962000D01*
X99839800Y-75778500D02*
X99695000Y-75862100D01*
X100162800Y-75692000D02*
X99839800Y-75778500D01*
X100330000Y-75692000D02*
X100162800Y-75692000D01*
X105410000Y-75692000D02*
X100330000Y-75692000D01*
X106680000Y-74674600D02*
X106680000Y-74422000D01*
X106486700Y-75141400D02*
X106680000Y-74674600D01*
X106129400Y-75498700D02*
X106486700Y-75141400D01*
X105662600Y-75692000D02*
X106129400Y-75498700D01*
X105410000Y-75692000D02*
X105662600Y-75692000D01*
X106680000Y-74169700D02*
X106680000Y-74422000D01*
X106872800Y-73703500D02*
X106680000Y-74169700D01*
X107229300Y-73346300D02*
X106872800Y-73703500D01*
X107695100Y-73152500D02*
X107229300Y-73346300D01*
X107947400Y-73152000D02*
X107695100Y-73152500D01*
X110487400Y-73146900D02*
X107947400Y-73152000D01*
X110490000Y-73146900D02*
X110487400Y-73146900D01*
X125730000Y-73146900D02*
X110490000Y-73146900D01*
X125732600Y-73146900D02*
X125730000Y-73146900D01*
X128272600Y-73152000D02*
X125732600Y-73146900D01*
X128524900Y-73152500D02*
X128272600Y-73152000D01*
X128990700Y-73346300D02*
X128524900Y-73152500D01*
X129347200Y-73703500D02*
X128990700Y-73346300D01*
X129540000Y-74169700D02*
X129347200Y-73703500D01*
X129540000Y-74422000D02*
X129540000Y-74169700D01*
X129540000Y-76962000D02*
X129540000Y-74422000D01*
X129814300Y-77806700D02*
X130059000Y-77986100D01*
X129540000Y-77265400D02*
X129814300Y-77806700D01*
X129540000Y-76962000D02*
X129540000Y-77265400D01*
X135763000Y-82169000D02*
X130059000Y-77986100D01*
X94493900Y-79938300D02*
X97790000Y-76962000D01*
X94829600Y-81085600D02*
X95041500Y-81046200D01*
X94444100Y-80892600D02*
X94829600Y-81085600D01*
X94253100Y-80506200D02*
X94444100Y-80892600D01*
X94333900Y-80082700D02*
X94253100Y-80506200D01*
X94493900Y-79938300D02*
X94333900Y-80082700D01*
X95041400Y-81046000D02*
X95041500Y-81046200D01*
X95289900Y-81000000D02*
X95041400Y-81046000D01*
X95779400Y-81126000D02*
X95289900Y-81000000D01*
X96170100Y-81446700D02*
X95779400Y-81126000D01*
X96388900Y-81902400D02*
X96170100Y-81446700D01*
X96392000Y-82155100D02*
X96388900Y-81902400D01*
X96475100Y-88983800D02*
X96392000Y-82155100D01*
X96475100Y-88989000D02*
X96475100Y-88983800D01*
X96475100Y-90589000D02*
X96475100Y-88989000D01*
X96474900Y-90600700D02*
X96475100Y-90589000D01*
X96400200Y-93310200D02*
X96474900Y-90600700D01*
X96400200Y-93310200D02*
X96399700Y-93345000D01*
X96399700Y-108356400D02*
X96399700Y-93345000D01*
X96407900Y-108508500D02*
X96416000Y-108558600D01*
X96399700Y-108407200D02*
X96407900Y-108508500D01*
X96399700Y-108356400D02*
X96399700Y-108407200D01*
X97024400Y-112311500D02*
X96416000Y-108558600D01*
X97025200Y-112316500D02*
X97024400Y-112311500D01*
X97026000Y-112326500D02*
X97025200Y-112316500D01*
X97026000Y-112331500D02*
X97026000Y-112326500D01*
X97026000Y-112456500D02*
X97026000Y-112331500D01*
X97663000Y-115887500D02*
X97026000Y-112456500D01*
X123738000Y-89789000D02*
X123063000Y-89789000D01*
X123863000Y-89789000D02*
X123738000Y-89789000D01*
X125603000Y-89789000D02*
X123863000Y-89789000D01*
X114172400Y-82440600D02*
X113030000Y-82169000D01*
X114486800Y-82452500D02*
X114586200Y-82416000D01*
X114275400Y-82465100D02*
X114486800Y-82452500D01*
X114172400Y-82440600D02*
X114275400Y-82465100D01*
X126168600Y-78153900D02*
X114586200Y-82416000D01*
X127000000Y-77361200D02*
X127000000Y-76962000D01*
X126543200Y-78016000D02*
X127000000Y-77361200D01*
X126168600Y-78153900D02*
X126543200Y-78016000D01*
X127000000Y-76794800D02*
X127000000Y-76962000D01*
X127086500Y-76471800D02*
X127000000Y-76794800D01*
X127170100Y-76327000D02*
X127086500Y-76471800D01*
X128270000Y-74422000D02*
X127170100Y-76327000D01*
X128050300Y-84450200D02*
X148864700Y-85296400D01*
X128040500Y-84449800D02*
X128050300Y-84450200D01*
X125505600Y-84335900D02*
X128040500Y-84449800D01*
X125396100Y-84331000D02*
X125505600Y-84335900D01*
X125179100Y-84299100D02*
X125396100Y-84331000D01*
X125072800Y-84272300D02*
X125179100Y-84299100D01*
X125072800Y-84272200D02*
X125072800Y-84272300D01*
X124546500Y-84216300D02*
X124372000Y-84247500D01*
X124900900Y-84228900D02*
X124546500Y-84216300D01*
X125072800Y-84272200D02*
X124900900Y-84228900D01*
X123462300Y-84409600D02*
X124372000Y-84247500D01*
X123285400Y-84441100D02*
X123462300Y-84409600D01*
X122926100Y-84447900D02*
X123285400Y-84441100D01*
X122748100Y-84423000D02*
X122926100Y-84447900D01*
X121618300Y-84265200D02*
X122748100Y-84423000D01*
X121282200Y-84239700D02*
X121169900Y-84245300D01*
X121506900Y-84249600D02*
X121282200Y-84239700D01*
X121618300Y-84265200D02*
X121506900Y-84249600D01*
X118165700Y-84396900D02*
X121169900Y-84245300D01*
X117919700Y-84417100D02*
X117838200Y-84429000D01*
X118083500Y-84401000D02*
X117919700Y-84417100D01*
X118165700Y-84396900D02*
X118083500Y-84401000D01*
X113454000Y-85069900D02*
X117838200Y-84429000D01*
X113336900Y-85087000D02*
X113454000Y-85069900D01*
X113100700Y-85102200D02*
X113336900Y-85087000D01*
X112982400Y-85100300D02*
X113100700Y-85102200D01*
X110566700Y-85061100D02*
X112982400Y-85100300D01*
X110178800Y-85069000D02*
X110050000Y-85081000D01*
X110437300Y-85059000D02*
X110178800Y-85069000D01*
X110566700Y-85061100D02*
X110437300Y-85059000D01*
X110041100Y-85081800D02*
X110050000Y-85081000D01*
X109881000Y-85096800D02*
X110041100Y-85081800D01*
X109560900Y-85065900D02*
X109881000Y-85096800D01*
X109406600Y-85020700D02*
X109560900Y-85065900D01*
X108161400Y-84655700D02*
X109406600Y-85020700D01*
X108010600Y-84611500D02*
X108161400Y-84655700D01*
X107739600Y-84452600D02*
X108010600Y-84611500D01*
X107627400Y-84342600D02*
X107739600Y-84452600D01*
X105410000Y-82169000D02*
X107627400Y-84342600D01*
X149545700Y-85047500D02*
X149740700Y-85580900D01*
X149109400Y-84578600D02*
X148887400Y-84571700D01*
X149469500Y-84838900D02*
X149109400Y-84578600D01*
X149545700Y-85047500D02*
X149469500Y-84838900D01*
X125550600Y-83839200D02*
X148887400Y-84571700D01*
X125462200Y-83836400D02*
X125550600Y-83839200D01*
X125287100Y-83812300D02*
X125462200Y-83836400D01*
X125201300Y-83791000D02*
X125287100Y-83812300D01*
X125185700Y-83787100D02*
X125201300Y-83791000D01*
X124567400Y-83715800D02*
X124361200Y-83745000D01*
X124983500Y-83737000D02*
X124567400Y-83715800D01*
X125185700Y-83787100D02*
X124983500Y-83737000D01*
X123307100Y-83894100D02*
X124361200Y-83745000D01*
X123179900Y-83912100D02*
X123307100Y-83894100D01*
X122923100Y-83910400D02*
X123179900Y-83912100D01*
X122796200Y-83890700D02*
X122923100Y-83910400D01*
X121737600Y-83726700D02*
X122796200Y-83890700D01*
X121291400Y-83688400D02*
X121142200Y-83695900D01*
X121589900Y-83703800D02*
X121291400Y-83688400D01*
X121737600Y-83726700D02*
X121589900Y-83703800D01*
X118138000Y-83847500D02*
X121142200Y-83695900D01*
X117819900Y-83874800D02*
X117714800Y-83891400D01*
X118031700Y-83852900D02*
X117819900Y-83874800D01*
X118138000Y-83847500D02*
X118031700Y-83852900D01*
X113407900Y-84569400D02*
X117714800Y-83891400D01*
X113303200Y-84585900D02*
X113407900Y-84569400D01*
X113091600Y-84600500D02*
X113303200Y-84585900D01*
X112985600Y-84598600D02*
X113091600Y-84600500D01*
X110585600Y-84554800D02*
X112985600Y-84598600D01*
X110148100Y-84563100D02*
X110002800Y-84576600D01*
X110439700Y-84552100D02*
X110148100Y-84563100D01*
X110585600Y-84554800D02*
X110439700Y-84552100D01*
X109994000Y-84577400D02*
X110002800Y-84576600D01*
X109871700Y-84588900D02*
X109994000Y-84577400D01*
X109627500Y-84561200D02*
X109871700Y-84588900D01*
X109510800Y-84522700D02*
X109627500Y-84561200D01*
X108292800Y-84120500D02*
X109510800Y-84522700D01*
X108045600Y-84039000D02*
X108292800Y-84120500D01*
X107767900Y-83598600D02*
X108045600Y-84039000D01*
X107800800Y-83340400D02*
X107767900Y-83598600D01*
X107950000Y-82169000D02*
X107800800Y-83340400D01*
X109559200Y-83993800D02*
X108520100Y-83432000D01*
X109846200Y-84082300D02*
X109946800Y-84072900D01*
X109648100Y-84041900D02*
X109846200Y-84082300D01*
X109559200Y-83993800D02*
X109648100Y-84041900D01*
X109955700Y-84072100D02*
X109946800Y-84072900D01*
X110118000Y-84057000D02*
X109955700Y-84072100D01*
X110443800Y-84045100D02*
X110118000Y-84057000D01*
X110606800Y-84048400D02*
X110443800Y-84045100D01*
X112990800Y-84096900D02*
X110606800Y-84048400D01*
X113261900Y-84085400D02*
X113351200Y-84070400D01*
X113081300Y-84098700D02*
X113261900Y-84085400D01*
X112990800Y-84096900D02*
X113081300Y-84098700D01*
X117578700Y-83356200D02*
X113351200Y-84070400D01*
X117710600Y-83333900D02*
X117578700Y-83356200D01*
X117976700Y-83304800D02*
X117710600Y-83333900D01*
X118110300Y-83298100D02*
X117976700Y-83304800D01*
X121114400Y-83146500D02*
X118110300Y-83298100D01*
X121305500Y-83136900D02*
X121114400Y-83146500D01*
X121687600Y-83159700D02*
X121305500Y-83136900D01*
X121876200Y-83192000D02*
X121687600Y-83159700D01*
X122859000Y-83360300D02*
X121876200Y-83192000D01*
X123110500Y-83379600D02*
X123194300Y-83370400D01*
X122942100Y-83374500D02*
X123110500Y-83379600D01*
X122859000Y-83360300D02*
X122942100Y-83374500D01*
X124375200Y-83241400D02*
X123194300Y-83370400D01*
X124608700Y-83215800D02*
X124375200Y-83241400D01*
X125077400Y-83247200D02*
X124608700Y-83215800D01*
X125305400Y-83303700D02*
X125077400Y-83247200D01*
X125321000Y-83307600D02*
X125305400Y-83303700D01*
X125518600Y-83340900D02*
X125585500Y-83341900D01*
X125385900Y-83323700D02*
X125518600Y-83340900D01*
X125321000Y-83307600D02*
X125385900Y-83323700D01*
X128124900Y-83379900D02*
X125585500Y-83341900D01*
X128124900Y-83379900D02*
X128136300Y-83380000D01*
X130676200Y-83394100D02*
X128136300Y-83380000D01*
X130683000Y-83394100D02*
X130676200Y-83394100D01*
X135763000Y-83394100D02*
X130683000Y-83394100D01*
X136218100Y-83316900D02*
X136353900Y-83242200D01*
X135918000Y-83394100D02*
X136218100Y-83316900D01*
X135763000Y-83394100D02*
X135918000Y-83394100D01*
X138303000Y-82169000D02*
X136353900Y-83242200D01*
X130683000Y-82169000D02*
X133223000Y-82169000D01*
D23*
G36*
X96393000Y-72606148D02*
X95777452Y-73012824D01*
X95250000Y-72907907D01*
X94681715Y-73020946D01*
X94199946Y-73342853D01*
X93878039Y-73824622D01*
X93765000Y-74392907D01*
X93765000Y-74451093D01*
X93878039Y-75019378D01*
X94199946Y-75501147D01*
X94483101Y-75690345D01*
X94483076Y-75690355D01*
X94054817Y-76080642D01*
X93808514Y-76605108D01*
X93929181Y-76835000D01*
X95123000Y-76835000D01*
X95123000Y-76815000D01*
X95377000Y-76815000D01*
X95377000Y-76835000D01*
X95397000Y-76835000D01*
X95397000Y-77089000D01*
X95377000Y-77089000D01*
X95377000Y-77109000D01*
X95123000Y-77109000D01*
X95123000Y-77089000D01*
X93929181Y-77089000D01*
X93808514Y-77318892D01*
X94054817Y-77843358D01*
X94483076Y-78233645D01*
X94893110Y-78403476D01*
X95122998Y-78282156D01*
X95122998Y-78346250D01*
X93984709Y-79374097D01*
X93984708Y-79374098D01*
X93824708Y-79518498D01*
X93766755Y-79596294D01*
X93698699Y-79665424D01*
X93678962Y-79714148D01*
X93647558Y-79756305D01*
X93623788Y-79850354D01*
X93587366Y-79940268D01*
X93506566Y-80363768D01*
X93507324Y-80460602D01*
X93494775Y-80556614D01*
X93508474Y-80607550D01*
X93508887Y-80660296D01*
X93546641Y-80749464D01*
X93571791Y-80842976D01*
X93762791Y-81229376D01*
X93821798Y-81306126D01*
X93869697Y-81390255D01*
X93911368Y-81422631D01*
X93943531Y-81464465D01*
X94008595Y-81501949D01*
X93858086Y-81819959D01*
X93979371Y-82042000D01*
X95123000Y-82042000D01*
X95123000Y-82022000D01*
X95377000Y-82022000D01*
X95377000Y-82042000D01*
X95397000Y-82042000D01*
X95397000Y-82296000D01*
X95377000Y-82296000D01*
X95377000Y-83438915D01*
X95599039Y-83560904D01*
X95648800Y-83540294D01*
X95707379Y-88354000D01*
X95535750Y-88354000D01*
X95377000Y-88512750D01*
X95377000Y-89662000D01*
X95397000Y-89662000D01*
X95397000Y-89916000D01*
X95377000Y-89916000D01*
X95377000Y-91065250D01*
X95535750Y-91224000D01*
X95697427Y-91224000D01*
X95676622Y-91978655D01*
X95348903Y-91860023D01*
X94763431Y-91886611D01*
X94346017Y-92059510D01*
X94267192Y-92309587D01*
X95123000Y-93165395D01*
X95137143Y-93151253D01*
X95316748Y-93330858D01*
X95302605Y-93345000D01*
X95316748Y-93359143D01*
X95137143Y-93538748D01*
X95123000Y-93524605D01*
X94267192Y-94380413D01*
X94346017Y-94630490D01*
X94897097Y-94829977D01*
X95482569Y-94803389D01*
X95639700Y-94738303D01*
X95639700Y-106883200D01*
X95408750Y-106883200D01*
X95250000Y-107041950D01*
X95250000Y-108229400D01*
X95270000Y-108229400D01*
X95270000Y-108483400D01*
X95250000Y-108483400D01*
X95250000Y-109670850D01*
X95408750Y-109829600D01*
X95852125Y-109829600D01*
X96165105Y-111760204D01*
X96011310Y-111696500D01*
X95408750Y-111696500D01*
X95250000Y-111855250D01*
X95250000Y-115760500D01*
X95270000Y-115760500D01*
X95270000Y-116014500D01*
X95250000Y-116014500D01*
X95250000Y-116034500D01*
X94996000Y-116034500D01*
X94996000Y-116014500D01*
X94976000Y-116014500D01*
X94976000Y-115760500D01*
X94996000Y-115760500D01*
X94996000Y-111855250D01*
X94837250Y-111696500D01*
X94234690Y-111696500D01*
X94001301Y-111793173D01*
X93822673Y-111971802D01*
X93753100Y-112139766D01*
X93753100Y-109911100D01*
X93695096Y-109619495D01*
X93529915Y-109372285D01*
X93282705Y-109207104D01*
X92991100Y-109149100D01*
X89819851Y-109149100D01*
X90389515Y-108913719D01*
X90661558Y-108642150D01*
X93649800Y-108642150D01*
X93649800Y-109320910D01*
X93746473Y-109554299D01*
X93925102Y-109732927D01*
X94158491Y-109829600D01*
X94837250Y-109829600D01*
X94996000Y-109670850D01*
X94996000Y-108483400D01*
X93808550Y-108483400D01*
X93649800Y-108642150D01*
X90661558Y-108642150D01*
X90878004Y-108426082D01*
X91142699Y-107788627D01*
X91143045Y-107391890D01*
X93649800Y-107391890D01*
X93649800Y-108070650D01*
X93808550Y-108229400D01*
X94996000Y-108229400D01*
X94996000Y-107041950D01*
X94837250Y-106883200D01*
X94158491Y-106883200D01*
X93925102Y-106979873D01*
X93746473Y-107158501D01*
X93649800Y-107391890D01*
X91143045Y-107391890D01*
X91143301Y-107098401D01*
X90879719Y-106460485D01*
X90392082Y-105971996D01*
X89754627Y-105707301D01*
X89064401Y-105706699D01*
X88426485Y-105970281D01*
X87937996Y-106457918D01*
X87753100Y-106903196D01*
X87753100Y-93119097D01*
X93638023Y-93119097D01*
X93664611Y-93704569D01*
X93837510Y-94121983D01*
X94087587Y-94200808D01*
X94943395Y-93345000D01*
X94087587Y-92489192D01*
X93837510Y-92568017D01*
X93638023Y-93119097D01*
X87753100Y-93119097D01*
X87753100Y-90074750D01*
X93815000Y-90074750D01*
X93815000Y-90715309D01*
X93911673Y-90948698D01*
X94090301Y-91127327D01*
X94323690Y-91224000D01*
X94964250Y-91224000D01*
X95123000Y-91065250D01*
X95123000Y-89916000D01*
X93973750Y-89916000D01*
X93815000Y-90074750D01*
X87753100Y-90074750D01*
X87753100Y-88862691D01*
X93815000Y-88862691D01*
X93815000Y-89503250D01*
X93973750Y-89662000D01*
X95123000Y-89662000D01*
X95123000Y-88512750D01*
X94964250Y-88354000D01*
X94323690Y-88354000D01*
X94090301Y-88450673D01*
X93911673Y-88629302D01*
X93815000Y-88862691D01*
X87753100Y-88862691D01*
X87753100Y-87673100D01*
X91491100Y-87673100D01*
X91782705Y-87615096D01*
X92029915Y-87449915D01*
X92195096Y-87202705D01*
X92253100Y-86911100D01*
X92253100Y-84911100D01*
X92195096Y-84619495D01*
X92029915Y-84372285D01*
X91782705Y-84207104D01*
X91491100Y-84149100D01*
X87753100Y-84149100D01*
X87753100Y-82518041D01*
X93858086Y-82518041D01*
X94097611Y-83024134D01*
X94512577Y-83400041D01*
X94900961Y-83560904D01*
X95123000Y-83438915D01*
X95123000Y-82296000D01*
X93979371Y-82296000D01*
X93858086Y-82518041D01*
X87753100Y-82518041D01*
X87753100Y-73690184D01*
X87936281Y-74133515D01*
X88423918Y-74622004D01*
X89061373Y-74886699D01*
X89751599Y-74887301D01*
X90389515Y-74623719D01*
X90878004Y-74136082D01*
X91142699Y-73498627D01*
X91143301Y-72808401D01*
X90879719Y-72170485D01*
X90392082Y-71681996D01*
X89816758Y-71443100D01*
X96393000Y-71443100D01*
X96393000Y-72606148D01*
X96393000Y-72606148D01*
G37*
X96393000Y-72606148D02*
X95777452Y-73012824D01*
X95250000Y-72907907D01*
X94681715Y-73020946D01*
X94199946Y-73342853D01*
X93878039Y-73824622D01*
X93765000Y-74392907D01*
X93765000Y-74451093D01*
X93878039Y-75019378D01*
X94199946Y-75501147D01*
X94483101Y-75690345D01*
X94483076Y-75690355D01*
X94054817Y-76080642D01*
X93808514Y-76605108D01*
X93929181Y-76835000D01*
X95123000Y-76835000D01*
X95123000Y-76815000D01*
X95377000Y-76815000D01*
X95377000Y-76835000D01*
X95397000Y-76835000D01*
X95397000Y-77089000D01*
X95377000Y-77089000D01*
X95377000Y-77109000D01*
X95123000Y-77109000D01*
X95123000Y-77089000D01*
X93929181Y-77089000D01*
X93808514Y-77318892D01*
X94054817Y-77843358D01*
X94483076Y-78233645D01*
X94893110Y-78403476D01*
X95122998Y-78282156D01*
X95122998Y-78346250D01*
X93984709Y-79374097D01*
X93984708Y-79374098D01*
X93824708Y-79518498D01*
X93766755Y-79596294D01*
X93698699Y-79665424D01*
X93678962Y-79714148D01*
X93647558Y-79756305D01*
X93623788Y-79850354D01*
X93587366Y-79940268D01*
X93506566Y-80363768D01*
X93507324Y-80460602D01*
X93494775Y-80556614D01*
X93508474Y-80607550D01*
X93508887Y-80660296D01*
X93546641Y-80749464D01*
X93571791Y-80842976D01*
X93762791Y-81229376D01*
X93821798Y-81306126D01*
X93869697Y-81390255D01*
X93911368Y-81422631D01*
X93943531Y-81464465D01*
X94008595Y-81501949D01*
X93858086Y-81819959D01*
X93979371Y-82042000D01*
X95123000Y-82042000D01*
X95123000Y-82022000D01*
X95377000Y-82022000D01*
X95377000Y-82042000D01*
X95397000Y-82042000D01*
X95397000Y-82296000D01*
X95377000Y-82296000D01*
X95377000Y-83438915D01*
X95599039Y-83560904D01*
X95648800Y-83540294D01*
X95707379Y-88354000D01*
X95535750Y-88354000D01*
X95377000Y-88512750D01*
X95377000Y-89662000D01*
X95397000Y-89662000D01*
X95397000Y-89916000D01*
X95377000Y-89916000D01*
X95377000Y-91065250D01*
X95535750Y-91224000D01*
X95697427Y-91224000D01*
X95676622Y-91978655D01*
X95348903Y-91860023D01*
X94763431Y-91886611D01*
X94346017Y-92059510D01*
X94267192Y-92309587D01*
X95123000Y-93165395D01*
X95137143Y-93151253D01*
X95316748Y-93330858D01*
X95302605Y-93345000D01*
X95316748Y-93359143D01*
X95137143Y-93538748D01*
X95123000Y-93524605D01*
X94267192Y-94380413D01*
X94346017Y-94630490D01*
X94897097Y-94829977D01*
X95482569Y-94803389D01*
X95639700Y-94738303D01*
X95639700Y-106883200D01*
X95408750Y-106883200D01*
X95250000Y-107041950D01*
X95250000Y-108229400D01*
X95270000Y-108229400D01*
X95270000Y-108483400D01*
X95250000Y-108483400D01*
X95250000Y-109670850D01*
X95408750Y-109829600D01*
X95852125Y-109829600D01*
X96165105Y-111760204D01*
X96011310Y-111696500D01*
X95408750Y-111696500D01*
X95250000Y-111855250D01*
X95250000Y-115760500D01*
X95270000Y-115760500D01*
X95270000Y-116014500D01*
X95250000Y-116014500D01*
X95250000Y-116034500D01*
X94996000Y-116034500D01*
X94996000Y-116014500D01*
X94976000Y-116014500D01*
X94976000Y-115760500D01*
X94996000Y-115760500D01*
X94996000Y-111855250D01*
X94837250Y-111696500D01*
X94234690Y-111696500D01*
X94001301Y-111793173D01*
X93822673Y-111971802D01*
X93753100Y-112139766D01*
X93753100Y-109911100D01*
X93695096Y-109619495D01*
X93529915Y-109372285D01*
X93282705Y-109207104D01*
X92991100Y-109149100D01*
X89819851Y-109149100D01*
X90389515Y-108913719D01*
X90661558Y-108642150D01*
X93649800Y-108642150D01*
X93649800Y-109320910D01*
X93746473Y-109554299D01*
X93925102Y-109732927D01*
X94158491Y-109829600D01*
X94837250Y-109829600D01*
X94996000Y-109670850D01*
X94996000Y-108483400D01*
X93808550Y-108483400D01*
X93649800Y-108642150D01*
X90661558Y-108642150D01*
X90878004Y-108426082D01*
X91142699Y-107788627D01*
X91143045Y-107391890D01*
X93649800Y-107391890D01*
X93649800Y-108070650D01*
X93808550Y-108229400D01*
X94996000Y-108229400D01*
X94996000Y-107041950D01*
X94837250Y-106883200D01*
X94158491Y-106883200D01*
X93925102Y-106979873D01*
X93746473Y-107158501D01*
X93649800Y-107391890D01*
X91143045Y-107391890D01*
X91143301Y-107098401D01*
X90879719Y-106460485D01*
X90392082Y-105971996D01*
X89754627Y-105707301D01*
X89064401Y-105706699D01*
X88426485Y-105970281D01*
X87937996Y-106457918D01*
X87753100Y-106903196D01*
X87753100Y-93119097D01*
X93638023Y-93119097D01*
X93664611Y-93704569D01*
X93837510Y-94121983D01*
X94087587Y-94200808D01*
X94943395Y-93345000D01*
X94087587Y-92489192D01*
X93837510Y-92568017D01*
X93638023Y-93119097D01*
X87753100Y-93119097D01*
X87753100Y-90074750D01*
X93815000Y-90074750D01*
X93815000Y-90715309D01*
X93911673Y-90948698D01*
X94090301Y-91127327D01*
X94323690Y-91224000D01*
X94964250Y-91224000D01*
X95123000Y-91065250D01*
X95123000Y-89916000D01*
X93973750Y-89916000D01*
X93815000Y-90074750D01*
X87753100Y-90074750D01*
X87753100Y-88862691D01*
X93815000Y-88862691D01*
X93815000Y-89503250D01*
X93973750Y-89662000D01*
X95123000Y-89662000D01*
X95123000Y-88512750D01*
X94964250Y-88354000D01*
X94323690Y-88354000D01*
X94090301Y-88450673D01*
X93911673Y-88629302D01*
X93815000Y-88862691D01*
X87753100Y-88862691D01*
X87753100Y-87673100D01*
X91491100Y-87673100D01*
X91782705Y-87615096D01*
X92029915Y-87449915D01*
X92195096Y-87202705D01*
X92253100Y-86911100D01*
X92253100Y-84911100D01*
X92195096Y-84619495D01*
X92029915Y-84372285D01*
X91782705Y-84207104D01*
X91491100Y-84149100D01*
X87753100Y-84149100D01*
X87753100Y-82518041D01*
X93858086Y-82518041D01*
X94097611Y-83024134D01*
X94512577Y-83400041D01*
X94900961Y-83560904D01*
X95123000Y-83438915D01*
X95123000Y-82296000D01*
X93979371Y-82296000D01*
X93858086Y-82518041D01*
X87753100Y-82518041D01*
X87753100Y-73690184D01*
X87936281Y-74133515D01*
X88423918Y-74622004D01*
X89061373Y-74886699D01*
X89751599Y-74887301D01*
X90389515Y-74623719D01*
X90878004Y-74136082D01*
X91142699Y-73498627D01*
X91143301Y-72808401D01*
X90879719Y-72170485D01*
X90392082Y-71681996D01*
X89816758Y-71443100D01*
X96393000Y-71443100D01*
X96393000Y-72606148D01*
G36*
X173643485Y-71680281D02*
X173154996Y-72167918D01*
X172890301Y-72805373D01*
X172889699Y-73495599D01*
X173153281Y-74133515D01*
X173640918Y-74622004D01*
X174278373Y-74886699D01*
X174968599Y-74887301D01*
X175606515Y-74623719D01*
X176095004Y-74136082D01*
X176229100Y-73813144D01*
X176229100Y-84149100D01*
X172491100Y-84149100D01*
X172199495Y-84207104D01*
X171952285Y-84372285D01*
X171787104Y-84619495D01*
X171729100Y-84911100D01*
X171729100Y-86911100D01*
X171787104Y-87202705D01*
X171952285Y-87449915D01*
X172199495Y-87615096D01*
X172491100Y-87673100D01*
X176229100Y-87673100D01*
X176229100Y-106780871D01*
X176096719Y-106460485D01*
X175609082Y-105971996D01*
X174971627Y-105707301D01*
X174281401Y-105706699D01*
X173643485Y-105970281D01*
X173154996Y-106457918D01*
X172890301Y-107095373D01*
X172889699Y-107785599D01*
X173153281Y-108423515D01*
X173640918Y-108912004D01*
X174211907Y-109149100D01*
X170991100Y-109149100D01*
X170699495Y-109207104D01*
X170452285Y-109372285D01*
X170287104Y-109619495D01*
X170229100Y-109911100D01*
X170229100Y-119083010D01*
X170192440Y-119267313D01*
X170192440Y-112331500D01*
X170148162Y-112096183D01*
X170009090Y-111880059D01*
X169796890Y-111735069D01*
X169545000Y-111684060D01*
X168812605Y-111684060D01*
X168511185Y-109824757D01*
X168557097Y-109841377D01*
X169142569Y-109814789D01*
X169559983Y-109641890D01*
X169638808Y-109391813D01*
X168783000Y-108536005D01*
X168768858Y-108550148D01*
X168589253Y-108370543D01*
X168603395Y-108356400D01*
X168962605Y-108356400D01*
X169818413Y-109212208D01*
X170068490Y-109133383D01*
X170267977Y-108582303D01*
X170241389Y-107996831D01*
X170068490Y-107579417D01*
X169818413Y-107500592D01*
X168962605Y-108356400D01*
X168603395Y-108356400D01*
X168589253Y-108342258D01*
X168768858Y-108162653D01*
X168783000Y-108176795D01*
X169638808Y-107320987D01*
X169559983Y-107070910D01*
X169008903Y-106871423D01*
X168423431Y-106898011D01*
X168163416Y-107005713D01*
X167640000Y-100829427D01*
X167640000Y-94285244D01*
X167947409Y-94593190D01*
X168488677Y-94817944D01*
X169074752Y-94818455D01*
X169616411Y-94594647D01*
X170031190Y-94180591D01*
X170255944Y-93639323D01*
X170256455Y-93053248D01*
X170032647Y-92511589D01*
X169618591Y-92096810D01*
X169077323Y-91872056D01*
X168491248Y-91871545D01*
X167949589Y-92095353D01*
X167640000Y-92404402D01*
X167640000Y-88299790D01*
X168870876Y-78459440D01*
X169760000Y-78459440D01*
X169995317Y-78415162D01*
X170211441Y-78276090D01*
X170356431Y-78063890D01*
X170407440Y-77812000D01*
X170407440Y-76112000D01*
X170363162Y-75876683D01*
X170224090Y-75660559D01*
X170011890Y-75515569D01*
X169955546Y-75504159D01*
X169960054Y-75501147D01*
X170281961Y-75019378D01*
X170395000Y-74451093D01*
X170395000Y-74392907D01*
X170281961Y-73824622D01*
X169960054Y-73342853D01*
X169478285Y-73020946D01*
X168910000Y-72907907D01*
X168341715Y-73020946D01*
X167859946Y-73342853D01*
X167640000Y-73672026D01*
X167640000Y-71443100D01*
X174217506Y-71443100D01*
X173643485Y-71680281D01*
X173643485Y-71680281D01*
G37*
X173643485Y-71680281D02*
X173154996Y-72167918D01*
X172890301Y-72805373D01*
X172889699Y-73495599D01*
X173153281Y-74133515D01*
X173640918Y-74622004D01*
X174278373Y-74886699D01*
X174968599Y-74887301D01*
X175606515Y-74623719D01*
X176095004Y-74136082D01*
X176229100Y-73813144D01*
X176229100Y-84149100D01*
X172491100Y-84149100D01*
X172199495Y-84207104D01*
X171952285Y-84372285D01*
X171787104Y-84619495D01*
X171729100Y-84911100D01*
X171729100Y-86911100D01*
X171787104Y-87202705D01*
X171952285Y-87449915D01*
X172199495Y-87615096D01*
X172491100Y-87673100D01*
X176229100Y-87673100D01*
X176229100Y-106780871D01*
X176096719Y-106460485D01*
X175609082Y-105971996D01*
X174971627Y-105707301D01*
X174281401Y-105706699D01*
X173643485Y-105970281D01*
X173154996Y-106457918D01*
X172890301Y-107095373D01*
X172889699Y-107785599D01*
X173153281Y-108423515D01*
X173640918Y-108912004D01*
X174211907Y-109149100D01*
X170991100Y-109149100D01*
X170699495Y-109207104D01*
X170452285Y-109372285D01*
X170287104Y-109619495D01*
X170229100Y-109911100D01*
X170229100Y-119083010D01*
X170192440Y-119267313D01*
X170192440Y-112331500D01*
X170148162Y-112096183D01*
X170009090Y-111880059D01*
X169796890Y-111735069D01*
X169545000Y-111684060D01*
X168812605Y-111684060D01*
X168511185Y-109824757D01*
X168557097Y-109841377D01*
X169142569Y-109814789D01*
X169559983Y-109641890D01*
X169638808Y-109391813D01*
X168783000Y-108536005D01*
X168768858Y-108550148D01*
X168589253Y-108370543D01*
X168603395Y-108356400D01*
X168962605Y-108356400D01*
X169818413Y-109212208D01*
X170068490Y-109133383D01*
X170267977Y-108582303D01*
X170241389Y-107996831D01*
X170068490Y-107579417D01*
X169818413Y-107500592D01*
X168962605Y-108356400D01*
X168603395Y-108356400D01*
X168589253Y-108342258D01*
X168768858Y-108162653D01*
X168783000Y-108176795D01*
X169638808Y-107320987D01*
X169559983Y-107070910D01*
X169008903Y-106871423D01*
X168423431Y-106898011D01*
X168163416Y-107005713D01*
X167640000Y-100829427D01*
X167640000Y-94285244D01*
X167947409Y-94593190D01*
X168488677Y-94817944D01*
X169074752Y-94818455D01*
X169616411Y-94594647D01*
X170031190Y-94180591D01*
X170255944Y-93639323D01*
X170256455Y-93053248D01*
X170032647Y-92511589D01*
X169618591Y-92096810D01*
X169077323Y-91872056D01*
X168491248Y-91871545D01*
X167949589Y-92095353D01*
X167640000Y-92404402D01*
X167640000Y-88299790D01*
X168870876Y-78459440D01*
X169760000Y-78459440D01*
X169995317Y-78415162D01*
X170211441Y-78276090D01*
X170356431Y-78063890D01*
X170407440Y-77812000D01*
X170407440Y-76112000D01*
X170363162Y-75876683D01*
X170224090Y-75660559D01*
X170011890Y-75515569D01*
X169955546Y-75504159D01*
X169960054Y-75501147D01*
X170281961Y-75019378D01*
X170395000Y-74451093D01*
X170395000Y-74392907D01*
X170281961Y-73824622D01*
X169960054Y-73342853D01*
X169478285Y-73020946D01*
X168910000Y-72907907D01*
X168341715Y-73020946D01*
X167859946Y-73342853D01*
X167640000Y-73672026D01*
X167640000Y-71443100D01*
X174217506Y-71443100D01*
X173643485Y-71680281D01*
M02*
