G04 #@! TF.FileFunction,Soldermask,Bot*
%FSLAX46Y46*%
G04 Gerber Fmt 4.6, Leading zero omitted, Abs format (unit mm)*
G04 Created by KiCad (PCBNEW 4.0.7) date 06/30/18 03:53:04*
%MOMM*%
%LPD*%
G01*
G04 APERTURE LIST*
%ADD10C,0.150000*%
%ADD11C,2.600000*%
%ADD12R,2.076400X2.076400*%
%ADD13C,2.076400*%
%ADD14R,1.400000X1.400000*%
%ADD15O,1.400000X1.400000*%
%ADD16R,1.924000X7.512000*%
%ADD17R,2.000000X2.000000*%
%ADD18O,2.000000X2.000000*%
%ADD19R,2.100000X2.100000*%
%ADD20O,2.100000X2.100000*%
G04 APERTURE END LIST*
D10*
D11*
X174625000Y-73152000D03*
X174625000Y-107442000D03*
X89408000Y-107442000D03*
D12*
X95123000Y-108356400D03*
D13*
X97663000Y-108356400D03*
X100203000Y-108356400D03*
X102743000Y-108356400D03*
X105283000Y-108356400D03*
X107823000Y-108356400D03*
X110363000Y-108356400D03*
X112903000Y-108356400D03*
X115443000Y-108356400D03*
X117983000Y-108356400D03*
X120523000Y-108356400D03*
X123063000Y-108356400D03*
X125603000Y-108356400D03*
X128143000Y-108356400D03*
X128143000Y-93345000D03*
X125603000Y-93345000D03*
X123063000Y-93345000D03*
X120523000Y-93345000D03*
X117983000Y-93345000D03*
X115443000Y-93345000D03*
X112903000Y-93345000D03*
X110363000Y-93345000D03*
X107823000Y-93345000D03*
X105283000Y-93345000D03*
X102743000Y-93345000D03*
X100203000Y-93345000D03*
X97663000Y-93345000D03*
X95123000Y-93345000D03*
D12*
X135763000Y-108356400D03*
D13*
X138303000Y-108356400D03*
X140843000Y-108356400D03*
X143383000Y-108356400D03*
X145923000Y-108356400D03*
X148463000Y-108356400D03*
X151003000Y-108356400D03*
X153543000Y-108356400D03*
X156083000Y-108356400D03*
X158623000Y-108356400D03*
X161163000Y-108356400D03*
X163703000Y-108356400D03*
X166243000Y-108356400D03*
X168783000Y-108356400D03*
X168783000Y-93345000D03*
X166243000Y-93345000D03*
X163703000Y-93345000D03*
X161163000Y-93345000D03*
X158623000Y-93345000D03*
X156083000Y-93345000D03*
X153543000Y-93345000D03*
X151003000Y-93345000D03*
X148463000Y-93345000D03*
X145923000Y-93345000D03*
X143383000Y-93345000D03*
X140843000Y-93345000D03*
X138303000Y-93345000D03*
X135763000Y-93345000D03*
D14*
X156083000Y-84328000D03*
D15*
X156083000Y-85598000D03*
X156083000Y-86868000D03*
D16*
X168783000Y-115887500D03*
X166243000Y-115887500D03*
X163703000Y-115887500D03*
X161163000Y-115887500D03*
X158623000Y-115887500D03*
X156083000Y-115887500D03*
X153543000Y-115887500D03*
X151003000Y-115887500D03*
X148463000Y-115887500D03*
X145923000Y-115887500D03*
X143383000Y-115887500D03*
X140843000Y-115887500D03*
X138303000Y-115887500D03*
X135763000Y-115887500D03*
X133223000Y-115887500D03*
X130683000Y-115887500D03*
X128143000Y-115887500D03*
X125603000Y-115887500D03*
X123063000Y-115887500D03*
X120523000Y-115887500D03*
X117983000Y-115887500D03*
X115443000Y-115887500D03*
X112903000Y-115887500D03*
X110363000Y-115887500D03*
X107823000Y-115887500D03*
X105283000Y-115887500D03*
X102743000Y-115887500D03*
X100203000Y-115887500D03*
X97663000Y-115887500D03*
X95123000Y-115887500D03*
D17*
X95250000Y-89789000D03*
D18*
X113030000Y-82169000D03*
X97790000Y-89789000D03*
X110490000Y-82169000D03*
X100330000Y-89789000D03*
X107950000Y-82169000D03*
X102870000Y-89789000D03*
X105410000Y-82169000D03*
X105410000Y-89789000D03*
X102870000Y-82169000D03*
X107950000Y-89789000D03*
X100330000Y-82169000D03*
X110490000Y-89789000D03*
X97790000Y-82169000D03*
X113030000Y-89789000D03*
X95250000Y-82169000D03*
D17*
X123063000Y-89789000D03*
D18*
X138303000Y-82169000D03*
X125603000Y-89789000D03*
X135763000Y-82169000D03*
X128143000Y-89789000D03*
X133223000Y-82169000D03*
X130683000Y-89789000D03*
X130683000Y-82169000D03*
X133223000Y-89789000D03*
X128143000Y-82169000D03*
X135763000Y-89789000D03*
X125603000Y-82169000D03*
X138303000Y-89789000D03*
X123063000Y-82169000D03*
D11*
X89408000Y-73152000D03*
D19*
X168910000Y-76962000D03*
D20*
X168910000Y-74422000D03*
X166370000Y-76962000D03*
X166370000Y-74422000D03*
X163830000Y-76962000D03*
X163830000Y-74422000D03*
X161290000Y-76962000D03*
X161290000Y-74422000D03*
X158750000Y-76962000D03*
X158750000Y-74422000D03*
X156210000Y-76962000D03*
X156210000Y-74422000D03*
X153670000Y-76962000D03*
X153670000Y-74422000D03*
X151130000Y-76962000D03*
X151130000Y-74422000D03*
X148590000Y-76962000D03*
X148590000Y-74422000D03*
X146050000Y-76962000D03*
X146050000Y-74422000D03*
X143510000Y-76962000D03*
X143510000Y-74422000D03*
X140970000Y-76962000D03*
X140970000Y-74422000D03*
X138430000Y-76962000D03*
X138430000Y-74422000D03*
X135890000Y-76962000D03*
X135890000Y-74422000D03*
X133350000Y-76962000D03*
X133350000Y-74422000D03*
X130810000Y-76962000D03*
X130810000Y-74422000D03*
X128270000Y-76962000D03*
X128270000Y-74422000D03*
X125730000Y-76962000D03*
X125730000Y-74422000D03*
X123190000Y-76962000D03*
X123190000Y-74422000D03*
X120650000Y-76962000D03*
X120650000Y-74422000D03*
X118110000Y-76962000D03*
X118110000Y-74422000D03*
X115570000Y-76962000D03*
X115570000Y-74422000D03*
X113030000Y-76962000D03*
X113030000Y-74422000D03*
X110490000Y-76962000D03*
X110490000Y-74422000D03*
X107950000Y-76962000D03*
X107950000Y-74422000D03*
X105410000Y-76962000D03*
X105410000Y-74422000D03*
X102870000Y-76962000D03*
X102870000Y-74422000D03*
X100330000Y-76962000D03*
X100330000Y-74422000D03*
X97790000Y-76962000D03*
X97790000Y-74422000D03*
X95250000Y-76962000D03*
X95250000Y-74422000D03*
M02*
